<mxfile host="65bd71144e">
    <diagram id="-Tiru008HkY5Dv4Y4CDK" name="ER_Diagram_v1">
        <mxGraphModel dx="1199" dy="870" grid="0" gridSize="10" guides="1" tooltips="1" connect="1" arrows="1" fold="1" page="0" pageScale="1" pageWidth="850" pageHeight="1100" math="0" shadow="0">
            <root>
                <mxCell id="0"/>
                <mxCell id="1" parent="0"/>
                <mxCell id="42" style="edgeStyle=orthogonalEdgeStyle;html=1;exitX=1;exitY=0.5;exitDx=0;exitDy=0;endArrow=none;endFill=0;" parent="1" source="17" target="41" edge="1">
                    <mxGeometry relative="1" as="geometry"/>
                </mxCell>
                <mxCell id="44" style="edgeStyle=orthogonalEdgeStyle;html=1;exitX=1;exitY=0.5;exitDx=0;exitDy=0;endArrow=none;endFill=0;" parent="1" source="17" target="43" edge="1">
                    <mxGeometry relative="1" as="geometry"/>
                </mxCell>
                <mxCell id="46" style="edgeStyle=orthogonalEdgeStyle;html=1;exitX=1;exitY=0.5;exitDx=0;exitDy=0;endArrow=none;endFill=0;" parent="1" source="17" target="45" edge="1">
                    <mxGeometry relative="1" as="geometry">
                        <Array as="points">
                            <mxPoint x="603" y="175"/>
                            <mxPoint x="603" y="245"/>
                        </Array>
                    </mxGeometry>
                </mxCell>
                <mxCell id="73" style="edgeStyle=orthogonalEdgeStyle;html=1;exitX=1;exitY=0.5;exitDx=0;exitDy=0;endArrow=none;endFill=0;" parent="1" source="17" target="72" edge="1">
                    <mxGeometry relative="1" as="geometry">
                        <Array as="points">
                            <mxPoint x="602" y="174"/>
                            <mxPoint x="602" y="81"/>
                        </Array>
                    </mxGeometry>
                </mxCell>
                <mxCell id="87" style="edgeStyle=orthogonalEdgeStyle;html=1;exitX=1;exitY=0.5;exitDx=0;exitDy=0;endArrow=none;endFill=0;" parent="1" source="17" target="86" edge="1">
                    <mxGeometry relative="1" as="geometry">
                        <Array as="points">
                            <mxPoint x="602" y="174"/>
                            <mxPoint x="602" y="18"/>
                        </Array>
                    </mxGeometry>
                </mxCell>
                <mxCell id="91" style="edgeStyle=orthogonalEdgeStyle;html=1;exitX=0.5;exitY=1;exitDx=0;exitDy=0;endArrow=none;endFill=0;" parent="1" source="17" target="90" edge="1">
                    <mxGeometry relative="1" as="geometry"/>
                </mxCell>
                <mxCell id="93" value="1" style="edgeLabel;html=1;align=center;verticalAlign=middle;resizable=0;points=[];" parent="91" vertex="1" connectable="0">
                    <mxGeometry x="0.6664" y="2" relative="1" as="geometry">
                        <mxPoint x="5" as="offset"/>
                    </mxGeometry>
                </mxCell>
                <mxCell id="17" value="Distributors" style="whiteSpace=wrap;html=1;align=center;fillColor=#6d8764;fontColor=#ffffff;strokeColor=#3A5431;" parent="1" vertex="1">
                    <mxGeometry x="485" y="154" width="100" height="40" as="geometry"/>
                </mxCell>
                <mxCell id="26" style="edgeStyle=orthogonalEdgeStyle;html=1;exitX=0.5;exitY=1;exitDx=0;exitDy=0;endArrow=none;endFill=0;" parent="1" source="18" target="25" edge="1">
                    <mxGeometry relative="1" as="geometry"/>
                </mxCell>
                <mxCell id="28" value="1" style="edgeLabel;html=1;align=center;verticalAlign=middle;resizable=0;points=[];" parent="26" vertex="1" connectable="0">
                    <mxGeometry x="0.6475" y="2" relative="1" as="geometry">
                        <mxPoint x="3" y="2" as="offset"/>
                    </mxGeometry>
                </mxCell>
                <mxCell id="68" style="edgeStyle=orthogonalEdgeStyle;html=1;exitX=1;exitY=0.5;exitDx=0;exitDy=0;endArrow=none;endFill=0;" parent="1" source="18" target="67" edge="1">
                    <mxGeometry relative="1" as="geometry"/>
                </mxCell>
                <mxCell id="70" value="1" style="edgeLabel;html=1;align=center;verticalAlign=middle;resizable=0;points=[];" parent="68" vertex="1" connectable="0">
                    <mxGeometry x="0.2982" relative="1" as="geometry">
                        <mxPoint x="11" y="8" as="offset"/>
                    </mxGeometry>
                </mxCell>
                <mxCell id="18" value="Users" style="whiteSpace=wrap;html=1;align=center;fillColor=#6d8764;fontColor=#ffffff;strokeColor=#3A5431;" parent="1" vertex="1">
                    <mxGeometry x="176" y="154" width="100" height="40" as="geometry"/>
                </mxCell>
                <mxCell id="23" style="edgeStyle=orthogonalEdgeStyle;html=1;exitX=1;exitY=0.5;exitDx=0;exitDy=0;endArrow=none;endFill=0;" parent="1" source="19" target="18" edge="1">
                    <mxGeometry relative="1" as="geometry"/>
                </mxCell>
                <mxCell id="19" value="email" style="ellipse;whiteSpace=wrap;html=1;align=center;fillColor=#0050ef;fontColor=#ffffff;strokeColor=#001DBC;" parent="1" vertex="1">
                    <mxGeometry x="13" y="172" width="100" height="40" as="geometry"/>
                </mxCell>
                <mxCell id="21" style="edgeStyle=orthogonalEdgeStyle;html=1;exitX=1;exitY=0.5;exitDx=0;exitDy=0;endArrow=none;endFill=0;" parent="1" source="20" target="18" edge="1">
                    <mxGeometry relative="1" as="geometry"/>
                </mxCell>
                <mxCell id="20" value="Id" style="ellipse;whiteSpace=wrap;html=1;align=center;fontStyle=4;fillColor=#6a00ff;fontColor=#ffffff;strokeColor=#3700CC;" parent="1" vertex="1">
                    <mxGeometry x="13" y="118" width="100" height="40" as="geometry"/>
                </mxCell>
                <mxCell id="24" value="Authentication" style="whiteSpace=wrap;html=1;align=center;fillColor=#6d8764;fontColor=#ffffff;strokeColor=#3A5431;" parent="1" vertex="1">
                    <mxGeometry x="176" y="358" width="100" height="40" as="geometry"/>
                </mxCell>
                <mxCell id="27" style="edgeStyle=orthogonalEdgeStyle;html=1;exitX=0.5;exitY=1;exitDx=0;exitDy=0;endArrow=none;endFill=0;" parent="1" source="25" target="24" edge="1">
                    <mxGeometry relative="1" as="geometry"/>
                </mxCell>
                <mxCell id="30" value="1" style="edgeLabel;html=1;align=center;verticalAlign=middle;resizable=0;points=[];" parent="27" vertex="1" connectable="0">
                    <mxGeometry x="-0.2925" y="1" relative="1" as="geometry">
                        <mxPoint x="4" y="-10" as="offset"/>
                    </mxGeometry>
                </mxCell>
                <mxCell id="25" value="Has" style="shape=rhombus;perimeter=rhombusPerimeter;whiteSpace=wrap;html=1;align=center;fillColor=#647687;fontColor=#ffffff;strokeColor=#314354;" parent="1" vertex="1">
                    <mxGeometry x="177" y="251" width="99" height="50" as="geometry"/>
                </mxCell>
                <mxCell id="64" style="edgeStyle=orthogonalEdgeStyle;html=1;exitX=1;exitY=0.5;exitDx=0;exitDy=0;endArrow=none;endFill=0;" parent="1" source="31" target="61" edge="1">
                    <mxGeometry relative="1" as="geometry"/>
                </mxCell>
                <mxCell id="65" style="edgeStyle=orthogonalEdgeStyle;html=1;exitX=1;exitY=0.5;exitDx=0;exitDy=0;endArrow=none;endFill=0;" parent="1" source="31" target="62" edge="1">
                    <mxGeometry relative="1" as="geometry">
                        <Array as="points">
                            <mxPoint x="608" y="368"/>
                            <mxPoint x="608" y="426"/>
                        </Array>
                    </mxGeometry>
                </mxCell>
                <mxCell id="66" style="edgeStyle=orthogonalEdgeStyle;html=1;exitX=1;exitY=0.5;exitDx=0;exitDy=0;endArrow=none;endFill=0;" parent="1" source="31" target="63" edge="1">
                    <mxGeometry relative="1" as="geometry">
                        <Array as="points">
                            <mxPoint x="608" y="368"/>
                            <mxPoint x="608" y="321"/>
                        </Array>
                    </mxGeometry>
                </mxCell>
                <mxCell id="75" style="edgeStyle=orthogonalEdgeStyle;html=1;exitX=1;exitY=0.5;exitDx=0;exitDy=0;endArrow=none;endFill=0;" parent="1" source="31" target="74" edge="1">
                    <mxGeometry relative="1" as="geometry">
                        <Array as="points">
                            <mxPoint x="607" y="368"/>
                            <mxPoint x="607" y="480"/>
                        </Array>
                    </mxGeometry>
                </mxCell>
                <mxCell id="77" style="edgeStyle=orthogonalEdgeStyle;html=1;exitX=1;exitY=0.5;exitDx=0;exitDy=0;endArrow=none;endFill=0;" parent="1" source="31" target="76" edge="1">
                    <mxGeometry relative="1" as="geometry">
                        <Array as="points">
                            <mxPoint x="608" y="368"/>
                            <mxPoint x="608" y="456"/>
                        </Array>
                    </mxGeometry>
                </mxCell>
                <mxCell id="79" style="edgeStyle=orthogonalEdgeStyle;html=1;exitX=1;exitY=0.5;exitDx=0;exitDy=0;endArrow=none;endFill=0;" parent="1" source="31" target="78" edge="1">
                    <mxGeometry relative="1" as="geometry">
                        <Array as="points">
                            <mxPoint x="608" y="368"/>
                            <mxPoint x="608" y="515"/>
                        </Array>
                    </mxGeometry>
                </mxCell>
                <mxCell id="81" style="edgeStyle=orthogonalEdgeStyle;html=1;exitX=1;exitY=0.5;exitDx=0;exitDy=0;endArrow=none;endFill=0;" parent="1" source="31" target="80" edge="1">
                    <mxGeometry relative="1" as="geometry">
                        <Array as="points">
                            <mxPoint x="608" y="368"/>
                            <mxPoint x="608" y="551"/>
                        </Array>
                    </mxGeometry>
                </mxCell>
                <mxCell id="83" style="edgeStyle=orthogonalEdgeStyle;html=1;exitX=1;exitY=0.5;exitDx=0;exitDy=0;endArrow=none;endFill=0;" parent="1" source="31" target="82" edge="1">
                    <mxGeometry relative="1" as="geometry">
                        <Array as="points">
                            <mxPoint x="608" y="368"/>
                            <mxPoint x="608" y="588"/>
                        </Array>
                    </mxGeometry>
                </mxCell>
                <mxCell id="85" style="edgeStyle=orthogonalEdgeStyle;html=1;exitX=1;exitY=0.5;exitDx=0;exitDy=0;endArrow=none;endFill=0;" parent="1" source="31" target="84" edge="1">
                    <mxGeometry relative="1" as="geometry">
                        <Array as="points">
                            <mxPoint x="608" y="368"/>
                            <mxPoint x="608" y="397"/>
                        </Array>
                    </mxGeometry>
                </mxCell>
                <mxCell id="89" style="edgeStyle=orthogonalEdgeStyle;html=1;exitX=1;exitY=0.5;exitDx=0;exitDy=0;endArrow=none;endFill=0;" parent="1" source="31" target="88" edge="1">
                    <mxGeometry relative="1" as="geometry">
                        <Array as="points">
                            <mxPoint x="607" y="368"/>
                            <mxPoint x="607" y="627"/>
                        </Array>
                    </mxGeometry>
                </mxCell>
                <mxCell id="96" style="edgeStyle=orthogonalEdgeStyle;html=1;exitX=1;exitY=0.5;exitDx=0;exitDy=0;endArrow=none;endFill=0;" parent="1" source="31" target="95" edge="1">
                    <mxGeometry relative="1" as="geometry">
                        <Array as="points">
                            <mxPoint x="607" y="368"/>
                            <mxPoint x="607" y="670"/>
                        </Array>
                    </mxGeometry>
                </mxCell>
                <mxCell id="31" value="Offers" style="whiteSpace=wrap;html=1;align=center;fillColor=#6d8764;fontColor=#ffffff;strokeColor=#3A5431;" parent="1" vertex="1">
                    <mxGeometry x="485" y="348" width="100" height="40" as="geometry"/>
                </mxCell>
                <mxCell id="50" style="edgeStyle=orthogonalEdgeStyle;html=1;exitX=0.5;exitY=1;exitDx=0;exitDy=0;endArrow=none;endFill=0;" parent="1" source="32" target="49" edge="1">
                    <mxGeometry relative="1" as="geometry"/>
                </mxCell>
                <mxCell id="32" value="zip_code" style="ellipse;whiteSpace=wrap;html=1;align=center;fillColor=#0050ef;fontColor=#ffffff;strokeColor=#001DBC;" parent="1" vertex="1">
                    <mxGeometry x="297" y="-76" width="100" height="40" as="geometry"/>
                </mxCell>
                <mxCell id="36" style="edgeStyle=orthogonalEdgeStyle;html=1;exitX=0.5;exitY=0;exitDx=0;exitDy=0;endArrow=none;endFill=0;" parent="1" source="35" target="24" edge="1">
                    <mxGeometry relative="1" as="geometry"/>
                </mxCell>
                <mxCell id="35" value="username" style="ellipse;whiteSpace=wrap;html=1;align=center;fillColor=#0050ef;fontColor=#ffffff;strokeColor=#001DBC;" parent="1" vertex="1">
                    <mxGeometry x="176" y="451" width="100" height="40" as="geometry"/>
                </mxCell>
                <mxCell id="38" style="edgeStyle=orthogonalEdgeStyle;html=1;exitX=0.5;exitY=0;exitDx=0;exitDy=0;endArrow=none;endFill=0;" parent="1" source="37" target="24" edge="1">
                    <mxGeometry relative="1" as="geometry"/>
                </mxCell>
                <mxCell id="37" value="password" style="ellipse;whiteSpace=wrap;html=1;align=center;fillColor=#0050ef;fontColor=#ffffff;strokeColor=#001DBC;" parent="1" vertex="1">
                    <mxGeometry x="290" y="451" width="100" height="40" as="geometry"/>
                </mxCell>
                <mxCell id="40" style="edgeStyle=orthogonalEdgeStyle;html=1;exitX=0.5;exitY=0;exitDx=0;exitDy=0;entryX=0.5;entryY=1;entryDx=0;entryDy=0;endArrow=none;endFill=0;" parent="1" source="39" target="24" edge="1">
                    <mxGeometry relative="1" as="geometry"/>
                </mxCell>
                <mxCell id="39" value="User_Id" style="ellipse;whiteSpace=wrap;html=1;align=center;fontStyle=4;fillColor=#6a00ff;fontColor=#ffffff;strokeColor=#3700CC;" parent="1" vertex="1">
                    <mxGeometry x="52" y="451" width="100" height="40" as="geometry"/>
                </mxCell>
                <mxCell id="41" value="Id" style="ellipse;whiteSpace=wrap;html=1;align=center;fontStyle=4;fillColor=#6a00ff;fontColor=#ffffff;strokeColor=#3700CC;" parent="1" vertex="1">
                    <mxGeometry x="636" y="122" width="100" height="40" as="geometry"/>
                </mxCell>
                <mxCell id="43" value="name" style="ellipse;whiteSpace=wrap;html=1;align=center;fillColor=#0050ef;fontColor=#ffffff;strokeColor=#001DBC;" parent="1" vertex="1">
                    <mxGeometry x="636" y="176" width="100" height="40" as="geometry"/>
                </mxCell>
                <mxCell id="45" value="abbreviation" style="ellipse;whiteSpace=wrap;html=1;align=center;fillColor=#0050ef;fontColor=#ffffff;strokeColor=#001DBC;" parent="1" vertex="1">
                    <mxGeometry x="636" y="225" width="100" height="40" as="geometry"/>
                </mxCell>
                <mxCell id="51" style="edgeStyle=orthogonalEdgeStyle;html=1;exitX=0.5;exitY=1;exitDx=0;exitDy=0;endArrow=none;endFill=0;" parent="1" source="47" target="49" edge="1">
                    <mxGeometry relative="1" as="geometry"/>
                </mxCell>
                <mxCell id="47" value="rate_schedule" style="ellipse;whiteSpace=wrap;html=1;align=center;fillColor=#0050ef;fontColor=#ffffff;strokeColor=#001DBC;" parent="1" vertex="1">
                    <mxGeometry x="430" y="-76" width="100" height="40" as="geometry"/>
                </mxCell>
                <mxCell id="58" style="edgeStyle=orthogonalEdgeStyle;html=1;exitX=0.5;exitY=0;exitDx=0;exitDy=0;endArrow=none;endFill=0;" parent="1" source="49" target="57" edge="1">
                    <mxGeometry relative="1" as="geometry"/>
                </mxCell>
                <mxCell id="49" value="Rate_Properties" style="whiteSpace=wrap;html=1;align=center;fillColor=#6d8764;fontColor=#ffffff;strokeColor=#3A5431;" parent="1" vertex="1">
                    <mxGeometry x="373" y="-10" width="100" height="40" as="geometry"/>
                </mxCell>
                <mxCell id="53" style="edgeStyle=orthogonalEdgeStyle;html=1;exitX=0.5;exitY=0;exitDx=0;exitDy=0;endArrow=none;endFill=0;" parent="1" source="52" target="49" edge="1">
                    <mxGeometry relative="1" as="geometry">
                        <Array as="points">
                            <mxPoint x="227" y="10"/>
                        </Array>
                    </mxGeometry>
                </mxCell>
                <mxCell id="56" value="1" style="edgeLabel;html=1;align=center;verticalAlign=middle;resizable=0;points=[];" parent="53" vertex="1" connectable="0">
                    <mxGeometry x="-0.6752" relative="1" as="geometry">
                        <mxPoint x="10" y="22" as="offset"/>
                    </mxGeometry>
                </mxCell>
                <mxCell id="54" style="edgeStyle=orthogonalEdgeStyle;html=1;exitX=0.5;exitY=1;exitDx=0;exitDy=0;endArrow=none;endFill=0;" parent="1" source="52" target="18" edge="1">
                    <mxGeometry relative="1" as="geometry"/>
                </mxCell>
                <mxCell id="55" value="n" style="edgeLabel;html=1;align=center;verticalAlign=middle;resizable=0;points=[];" parent="54" vertex="1" connectable="0">
                    <mxGeometry x="-0.2207" relative="1" as="geometry">
                        <mxPoint x="12" y="-14" as="offset"/>
                    </mxGeometry>
                </mxCell>
                <mxCell id="52" value="Has" style="shape=rhombus;perimeter=rhombusPerimeter;whiteSpace=wrap;html=1;align=center;fillColor=#647687;fontColor=#ffffff;strokeColor=#314354;" parent="1" vertex="1">
                    <mxGeometry x="177" y="50" width="99" height="50" as="geometry"/>
                </mxCell>
                <mxCell id="57" value="Id" style="ellipse;whiteSpace=wrap;html=1;align=center;fontStyle=4;fillColor=#6a00ff;fontColor=#ffffff;strokeColor=#3700CC;" parent="1" vertex="1">
                    <mxGeometry x="556" y="-76" width="100" height="40" as="geometry"/>
                </mxCell>
                <mxCell id="60" style="edgeStyle=orthogonalEdgeStyle;html=1;exitX=1;exitY=0.5;exitDx=0;exitDy=0;entryX=0;entryY=0.5;entryDx=0;entryDy=0;endArrow=none;endFill=0;" parent="1" source="59" target="18" edge="1">
                    <mxGeometry relative="1" as="geometry"/>
                </mxCell>
                <mxCell id="59" value="Rate_Properties_Id" style="ellipse;whiteSpace=wrap;html=1;align=center;fillColor=#0050ef;fontColor=#ffffff;strokeColor=#001DBC;" parent="1" vertex="1">
                    <mxGeometry x="-3.5" y="227" width="133" height="41" as="geometry"/>
                </mxCell>
                <mxCell id="61" value="price_structure" style="ellipse;whiteSpace=wrap;html=1;align=center;fillColor=#0050ef;fontColor=#ffffff;strokeColor=#001DBC;" parent="1" vertex="1">
                    <mxGeometry x="652" y="348" width="100" height="40" as="geometry"/>
                </mxCell>
                <mxCell id="62" value="price_per_kWh" style="ellipse;whiteSpace=wrap;html=1;align=center;fillColor=#0050ef;fontColor=#ffffff;strokeColor=#001DBC;" parent="1" vertex="1">
                    <mxGeometry x="652" y="406" width="100" height="40" as="geometry"/>
                </mxCell>
                <mxCell id="63" value="Id" style="ellipse;whiteSpace=wrap;html=1;align=center;fontStyle=4;fillColor=#6a00ff;fontColor=#ffffff;strokeColor=#3700CC;" parent="1" vertex="1">
                    <mxGeometry x="653" y="301" width="100" height="40" as="geometry"/>
                </mxCell>
                <mxCell id="69" style="edgeStyle=orthogonalEdgeStyle;html=1;exitX=1;exitY=0.5;exitDx=0;exitDy=0;endArrow=none;endFill=0;" parent="1" source="67" target="17" edge="1">
                    <mxGeometry relative="1" as="geometry"/>
                </mxCell>
                <mxCell id="71" value="n" style="edgeLabel;html=1;align=center;verticalAlign=middle;resizable=0;points=[];" parent="69" vertex="1" connectable="0">
                    <mxGeometry x="-0.8166" relative="1" as="geometry">
                        <mxPoint x="1" y="8" as="offset"/>
                    </mxGeometry>
                </mxCell>
                <mxCell id="67" value="Prefers" style="shape=rhombus;perimeter=rhombusPerimeter;whiteSpace=wrap;html=1;align=center;fillColor=#647687;fontColor=#ffffff;strokeColor=#314354;" parent="1" vertex="1">
                    <mxGeometry x="331" y="149" width="99" height="50" as="geometry"/>
                </mxCell>
                <mxCell id="72" value="rate_properties_id" style="ellipse;whiteSpace=wrap;html=1;align=center;fillColor=#0050ef;fontColor=#ffffff;strokeColor=#001DBC;" parent="1" vertex="1">
                    <mxGeometry x="625" y="57" width="122" height="48" as="geometry"/>
                </mxCell>
                <mxCell id="74" value="discount?" style="ellipse;whiteSpace=wrap;html=1;align=center;fillColor=#0050ef;fontColor=#ffffff;strokeColor=#001DBC;" parent="1" vertex="1">
                    <mxGeometry x="652" y="460" width="100" height="40" as="geometry"/>
                </mxCell>
                <mxCell id="76" value="intro_price?" style="ellipse;whiteSpace=wrap;html=1;align=center;fillColor=#0050ef;fontColor=#ffffff;strokeColor=#001DBC;" parent="1" vertex="1">
                    <mxGeometry x="762" y="435" width="100" height="40" as="geometry"/>
                </mxCell>
                <mxCell id="78" value="renewable?" style="ellipse;whiteSpace=wrap;html=1;align=center;fillColor=#0050ef;fontColor=#ffffff;strokeColor=#001DBC;" parent="1" vertex="1">
                    <mxGeometry x="762" y="494" width="100" height="40" as="geometry"/>
                </mxCell>
                <mxCell id="80" value="cancel_fee?" style="ellipse;whiteSpace=wrap;html=1;align=center;fillColor=#0050ef;fontColor=#ffffff;strokeColor=#001DBC;" parent="1" vertex="1">
                    <mxGeometry x="653" y="531" width="100" height="40" as="geometry"/>
                </mxCell>
                <mxCell id="82" value="term_length" style="ellipse;whiteSpace=wrap;html=1;align=center;fillColor=#0050ef;fontColor=#ffffff;strokeColor=#001DBC;" parent="1" vertex="1">
                    <mxGeometry x="762" y="567" width="100" height="40" as="geometry"/>
                </mxCell>
                <mxCell id="84" value="monthly_fee?" style="ellipse;whiteSpace=wrap;html=1;align=center;fillColor=#0050ef;fontColor=#ffffff;strokeColor=#001DBC;" parent="1" vertex="1">
                    <mxGeometry x="762" y="376" width="100" height="40" as="geometry"/>
                </mxCell>
                <mxCell id="86" value="url" style="ellipse;whiteSpace=wrap;html=1;align=center;fillColor=#0050ef;fontColor=#ffffff;strokeColor=#001DBC;" parent="1" vertex="1">
                    <mxGeometry x="636" y="-2" width="100" height="40" as="geometry"/>
                </mxCell>
                <mxCell id="88" value="enrollment_fee?" style="ellipse;whiteSpace=wrap;html=1;align=center;fillColor=#0050ef;fontColor=#ffffff;strokeColor=#001DBC;" parent="1" vertex="1">
                    <mxGeometry x="652" y="607" width="100" height="40" as="geometry"/>
                </mxCell>
                <mxCell id="92" style="edgeStyle=orthogonalEdgeStyle;html=1;entryX=0.5;entryY=0;entryDx=0;entryDy=0;endArrow=none;endFill=0;" parent="1" source="90" target="31" edge="1">
                    <mxGeometry relative="1" as="geometry"/>
                </mxCell>
                <mxCell id="94" value="n" style="edgeLabel;html=1;align=center;verticalAlign=middle;resizable=0;points=[];" parent="92" vertex="1" connectable="0">
                    <mxGeometry x="-0.3335" relative="1" as="geometry">
                        <mxPoint x="12" y="-6" as="offset"/>
                    </mxGeometry>
                </mxCell>
                <mxCell id="90" value="Provides" style="shape=rhombus;perimeter=rhombusPerimeter;whiteSpace=wrap;html=1;align=center;fillColor=#647687;fontColor=#ffffff;strokeColor=#314354;" parent="1" vertex="1">
                    <mxGeometry x="485" y="251" width="99" height="50" as="geometry"/>
                </mxCell>
                <mxCell id="95" value="signup_url" style="ellipse;whiteSpace=wrap;html=1;align=center;fillColor=#0050ef;fontColor=#ffffff;strokeColor=#001DBC;" parent="1" vertex="1">
                    <mxGeometry x="762" y="647" width="100" height="40" as="geometry"/>
                </mxCell>
            </root>
        </mxGraphModel>
    </diagram>
    <diagram name="ER_Diagram_v2" id="JO7MQMlwAbBp_0EB5cgL">
        <mxGraphModel dx="1251" dy="896" grid="0" gridSize="10" guides="1" tooltips="1" connect="1" arrows="1" fold="1" page="0" pageScale="1" pageWidth="850" pageHeight="1100" math="0" shadow="0">
            <root>
                <mxCell id="PPgXyJdH1Yjr_ODgBcJD-0"/>
                <mxCell id="PPgXyJdH1Yjr_ODgBcJD-1" parent="PPgXyJdH1Yjr_ODgBcJD-0"/>
                <mxCell id="PPgXyJdH1Yjr_ODgBcJD-14" value="Users" style="whiteSpace=wrap;html=1;align=center;fillColor=#6d8764;fontColor=#ffffff;strokeColor=#3A5431;" parent="PPgXyJdH1Yjr_ODgBcJD-1" vertex="1">
                    <mxGeometry x="176" y="154" width="100" height="40" as="geometry"/>
                </mxCell>
                <mxCell id="PPgXyJdH1Yjr_ODgBcJD-15" style="html=1;endArrow=none;endFill=0;" parent="PPgXyJdH1Yjr_ODgBcJD-1" source="PPgXyJdH1Yjr_ODgBcJD-16" target="PPgXyJdH1Yjr_ODgBcJD-14" edge="1">
                    <mxGeometry relative="1" as="geometry"/>
                </mxCell>
                <mxCell id="PPgXyJdH1Yjr_ODgBcJD-16" value="email" style="ellipse;whiteSpace=wrap;html=1;align=center;fillColor=#0050ef;fontColor=#ffffff;strokeColor=#001DBC;" parent="PPgXyJdH1Yjr_ODgBcJD-1" vertex="1">
                    <mxGeometry x="5" y="132" width="100" height="40" as="geometry"/>
                </mxCell>
                <mxCell id="PPgXyJdH1Yjr_ODgBcJD-17" style="html=1;endArrow=none;endFill=0;" parent="PPgXyJdH1Yjr_ODgBcJD-1" source="PPgXyJdH1Yjr_ODgBcJD-18" target="PPgXyJdH1Yjr_ODgBcJD-14" edge="1">
                    <mxGeometry relative="1" as="geometry"/>
                </mxCell>
                <mxCell id="PPgXyJdH1Yjr_ODgBcJD-18" value="Id" style="ellipse;whiteSpace=wrap;html=1;align=center;fontStyle=4;fillColor=#6a00ff;fontColor=#ffffff;strokeColor=#3700CC;" parent="PPgXyJdH1Yjr_ODgBcJD-1" vertex="1">
                    <mxGeometry x="60" y="38" width="100" height="40" as="geometry"/>
                </mxCell>
                <mxCell id="PPgXyJdH1Yjr_ODgBcJD-36" value="zip_code" style="ellipse;whiteSpace=wrap;html=1;align=center;fillColor=#0050ef;fontColor=#ffffff;strokeColor=#001DBC;" parent="PPgXyJdH1Yjr_ODgBcJD-1" vertex="1">
                    <mxGeometry x="636" y="67" width="100" height="40" as="geometry"/>
                </mxCell>
                <mxCell id="PPgXyJdH1Yjr_ODgBcJD-37" style="html=1;endArrow=none;endFill=0;" parent="PPgXyJdH1Yjr_ODgBcJD-1" source="PPgXyJdH1Yjr_ODgBcJD-38" target="PPgXyJdH1Yjr_ODgBcJD-14" edge="1">
                    <mxGeometry relative="1" as="geometry"/>
                </mxCell>
                <mxCell id="PPgXyJdH1Yjr_ODgBcJD-38" value="username" style="ellipse;whiteSpace=wrap;html=1;align=center;fillColor=#0050ef;fontColor=#ffffff;strokeColor=#001DBC;" parent="PPgXyJdH1Yjr_ODgBcJD-1" vertex="1">
                    <mxGeometry x="17" y="203" width="100" height="40" as="geometry"/>
                </mxCell>
                <mxCell id="5iRO5G7ItkgHMw0Cdmji-5" style="html=1;endArrow=none;endFill=0;" parent="PPgXyJdH1Yjr_ODgBcJD-1" source="PPgXyJdH1Yjr_ODgBcJD-40" target="PPgXyJdH1Yjr_ODgBcJD-14" edge="1">
                    <mxGeometry relative="1" as="geometry"/>
                </mxCell>
                <mxCell id="PPgXyJdH1Yjr_ODgBcJD-40" value="password" style="ellipse;whiteSpace=wrap;html=1;align=center;fillColor=#0050ef;fontColor=#ffffff;strokeColor=#001DBC;" parent="PPgXyJdH1Yjr_ODgBcJD-1" vertex="1">
                    <mxGeometry x="47" y="282" width="100" height="40" as="geometry"/>
                </mxCell>
                <mxCell id="PPgXyJdH1Yjr_ODgBcJD-47" value="rate_schedule" style="ellipse;whiteSpace=wrap;html=1;align=center;fillColor=#0050ef;fontColor=#ffffff;strokeColor=#001DBC;" parent="PPgXyJdH1Yjr_ODgBcJD-1" vertex="1">
                    <mxGeometry x="644" y="142" width="100" height="40" as="geometry"/>
                </mxCell>
                <mxCell id="5iRO5G7ItkgHMw0Cdmji-10" style="edgeStyle=none;html=1;endArrow=none;endFill=0;" parent="PPgXyJdH1Yjr_ODgBcJD-1" source="TdIsWZb5dKMUxqS2PxVX-5" target="TdIsWZb5dKMUxqS2PxVX-7" edge="1">
                    <mxGeometry relative="1" as="geometry">
                        <mxPoint x="541.4997640504457" y="153.9999999999999" as="sourcePoint"/>
                        <mxPoint x="543.4286087428573" y="72.99869400000296" as="targetPoint"/>
                    </mxGeometry>
                </mxCell>
                <mxCell id="5iRO5G7ItkgHMw0Cdmji-11" style="edgeStyle=none;html=1;endArrow=none;endFill=0;" parent="PPgXyJdH1Yjr_ODgBcJD-1" source="TdIsWZb5dKMUxqS2PxVX-5" target="PPgXyJdH1Yjr_ODgBcJD-36" edge="1">
                    <mxGeometry relative="1" as="geometry">
                        <mxPoint x="574.2547946153097" y="153.9999999999999" as="sourcePoint"/>
                    </mxGeometry>
                </mxCell>
                <mxCell id="5iRO5G7ItkgHMw0Cdmji-12" style="edgeStyle=none;html=1;endArrow=none;endFill=0;" parent="PPgXyJdH1Yjr_ODgBcJD-1" source="TdIsWZb5dKMUxqS2PxVX-5" target="PPgXyJdH1Yjr_ODgBcJD-47" edge="1">
                    <mxGeometry relative="1" as="geometry">
                        <mxPoint x="591" y="169.99170574207267" as="sourcePoint"/>
                    </mxGeometry>
                </mxCell>
                <mxCell id="5iRO5G7ItkgHMw0Cdmji-13" style="edgeStyle=none;html=1;endArrow=none;endFill=0;" parent="PPgXyJdH1Yjr_ODgBcJD-1" source="TdIsWZb5dKMUxqS2PxVX-5" target="5iRO5G7ItkgHMw0Cdmji-0" edge="1">
                    <mxGeometry relative="1" as="geometry">
                        <mxPoint x="591" y="190.7721657435028" as="sourcePoint"/>
                    </mxGeometry>
                </mxCell>
                <mxCell id="5iRO5G7ItkgHMw0Cdmji-14" style="edgeStyle=none;html=1;endArrow=none;endFill=0;" parent="PPgXyJdH1Yjr_ODgBcJD-1" source="TdIsWZb5dKMUxqS2PxVX-5" target="5iRO5G7ItkgHMw0Cdmji-2" edge="1">
                    <mxGeometry relative="1" as="geometry">
                        <mxPoint x="559.0271586678582" y="193.9999999999999" as="sourcePoint"/>
                    </mxGeometry>
                </mxCell>
                <mxCell id="PPgXyJdH1Yjr_ODgBcJD-50" style="edgeStyle=orthogonalEdgeStyle;html=1;endArrow=none;endFill=0;" parent="PPgXyJdH1Yjr_ODgBcJD-1" source="PPgXyJdH1Yjr_ODgBcJD-54" target="TdIsWZb5dKMUxqS2PxVX-5" edge="1">
                    <mxGeometry relative="1" as="geometry">
                        <Array as="points"/>
                        <mxPoint x="491" y="174.0000000000001" as="targetPoint"/>
                    </mxGeometry>
                </mxCell>
                <mxCell id="PPgXyJdH1Yjr_ODgBcJD-51" value="1" style="edgeLabel;html=1;align=center;verticalAlign=middle;resizable=0;points=[];" parent="PPgXyJdH1Yjr_ODgBcJD-50" vertex="1" connectable="0">
                    <mxGeometry x="-0.6752" relative="1" as="geometry">
                        <mxPoint x="-1" y="-14" as="offset"/>
                    </mxGeometry>
                </mxCell>
                <mxCell id="PPgXyJdH1Yjr_ODgBcJD-52" style="edgeStyle=orthogonalEdgeStyle;html=1;endArrow=none;endFill=0;" parent="PPgXyJdH1Yjr_ODgBcJD-1" source="PPgXyJdH1Yjr_ODgBcJD-54" target="PPgXyJdH1Yjr_ODgBcJD-14" edge="1">
                    <mxGeometry relative="1" as="geometry">
                        <Array as="points"/>
                    </mxGeometry>
                </mxCell>
                <mxCell id="PPgXyJdH1Yjr_ODgBcJD-53" value="1" style="edgeLabel;html=1;align=center;verticalAlign=middle;resizable=0;points=[];" parent="PPgXyJdH1Yjr_ODgBcJD-52" vertex="1" connectable="0">
                    <mxGeometry x="-0.2207" relative="1" as="geometry">
                        <mxPoint x="18" y="-13" as="offset"/>
                    </mxGeometry>
                </mxCell>
                <mxCell id="PPgXyJdH1Yjr_ODgBcJD-54" value="Has" style="shape=rhombus;perimeter=rhombusPerimeter;whiteSpace=wrap;html=1;align=center;fillColor=#647687;fontColor=#ffffff;strokeColor=#314354;" parent="PPgXyJdH1Yjr_ODgBcJD-1" vertex="1">
                    <mxGeometry x="329" y="149" width="99" height="50" as="geometry"/>
                </mxCell>
                <mxCell id="5iRO5G7ItkgHMw0Cdmji-0" value="distributor_id" style="ellipse;whiteSpace=wrap;html=1;align=center;fillColor=#0050ef;fontColor=#ffffff;strokeColor=#001DBC;" parent="PPgXyJdH1Yjr_ODgBcJD-1" vertex="1">
                    <mxGeometry x="644" y="205" width="100" height="40" as="geometry"/>
                </mxCell>
                <mxCell id="5iRO5G7ItkgHMw0Cdmji-2" value="selected_offer_id" style="ellipse;whiteSpace=wrap;html=1;align=center;fillColor=#0050ef;fontColor=#ffffff;strokeColor=#001DBC;" parent="PPgXyJdH1Yjr_ODgBcJD-1" vertex="1">
                    <mxGeometry x="589" y="274" width="120" height="40" as="geometry"/>
                </mxCell>
                <mxCell id="TdIsWZb5dKMUxqS2PxVX-1" style="edgeStyle=none;html=1;dashed=1;endArrow=open;endFill=0;" parent="PPgXyJdH1Yjr_ODgBcJD-1" source="TdIsWZb5dKMUxqS2PxVX-0" target="5iRO5G7ItkgHMw0Cdmji-2" edge="1">
                    <mxGeometry relative="1" as="geometry"/>
                </mxCell>
                <mxCell id="TdIsWZb5dKMUxqS2PxVX-2" style="edgeStyle=none;html=1;dashed=1;endArrow=open;endFill=0;" parent="PPgXyJdH1Yjr_ODgBcJD-1" source="TdIsWZb5dKMUxqS2PxVX-0" target="5iRO5G7ItkgHMw0Cdmji-0" edge="1">
                    <mxGeometry relative="1" as="geometry"/>
                </mxCell>
                <mxCell id="TdIsWZb5dKMUxqS2PxVX-0" value="These are PAPowerSwitch api Ids" style="shape=note2;boundedLbl=1;whiteSpace=wrap;html=1;size=12;verticalAlign=top;align=center;" parent="PPgXyJdH1Yjr_ODgBcJD-1" vertex="1">
                    <mxGeometry x="748" y="336" width="124" height="70" as="geometry"/>
                </mxCell>
                <mxCell id="TdIsWZb5dKMUxqS2PxVX-4" style="edgeStyle=none;html=1;dashed=1;endArrow=open;endFill=0;" parent="PPgXyJdH1Yjr_ODgBcJD-1" source="TdIsWZb5dKMUxqS2PxVX-3" target="PPgXyJdH1Yjr_ODgBcJD-40" edge="1">
                    <mxGeometry relative="1" as="geometry"/>
                </mxCell>
                <mxCell id="TdIsWZb5dKMUxqS2PxVX-3" value="Stored as hash" style="shape=note2;boundedLbl=1;whiteSpace=wrap;html=1;size=12;verticalAlign=top;align=center;" parent="PPgXyJdH1Yjr_ODgBcJD-1" vertex="1">
                    <mxGeometry x="176" y="331" width="128" height="49" as="geometry"/>
                </mxCell>
                <mxCell id="TdIsWZb5dKMUxqS2PxVX-5" value="User_Preferences" style="shape=ext;margin=3;double=1;whiteSpace=wrap;html=1;align=center;fillColor=#6d8764;strokeColor=#3A5431;fontColor=#ffffff;" parent="PPgXyJdH1Yjr_ODgBcJD-1" vertex="1">
                    <mxGeometry x="475" y="153" width="131" height="42" as="geometry"/>
                </mxCell>
                <mxCell id="TdIsWZb5dKMUxqS2PxVX-7" value="&lt;span style=&quot;border-bottom: 1px dotted&quot;&gt;User_Id&lt;/span&gt;" style="ellipse;whiteSpace=wrap;html=1;align=center;fillColor=#6a00ff;fontColor=#ffffff;strokeColor=#3700CC;" parent="PPgXyJdH1Yjr_ODgBcJD-1" vertex="1">
                    <mxGeometry x="506" y="27" width="100" height="40" as="geometry"/>
                </mxCell>
                <mxCell id="zOmBM9hLcE4X_k6nT-WD-0" value="selected_offer_rate" style="ellipse;whiteSpace=wrap;html=1;align=center;fillColor=#0050ef;fontColor=#ffffff;strokeColor=#001DBC;" parent="PPgXyJdH1Yjr_ODgBcJD-1" vertex="1">
                    <mxGeometry x="525" y="336" width="120" height="49" as="geometry"/>
                </mxCell>
                <mxCell id="zOmBM9hLcE4X_k6nT-WD-1" style="edgeStyle=none;html=1;endArrow=none;endFill=0;" parent="PPgXyJdH1Yjr_ODgBcJD-1" source="TdIsWZb5dKMUxqS2PxVX-5" target="zOmBM9hLcE4X_k6nT-WD-0" edge="1">
                    <mxGeometry relative="1" as="geometry">
                        <mxPoint x="569.5041217597206" y="205" as="sourcePoint"/>
                        <mxPoint x="641.7591268660192" y="284.8434742955769" as="targetPoint"/>
                    </mxGeometry>
                </mxCell>
            </root>
        </mxGraphModel>
    </diagram>
    <diagram name="ER_Diagram_v3" id="2NgV8mdQbFWYC_BEJfAm">
        <mxGraphModel dx="1651" dy="896" grid="0" gridSize="10" guides="1" tooltips="1" connect="1" arrows="1" fold="1" page="0" pageScale="1" pageWidth="850" pageHeight="1100" math="0" shadow="0">
            <root>
                <mxCell id="DnannXf5A5OPrncKF8dP-0"/>
                <mxCell id="DnannXf5A5OPrncKF8dP-1" parent="DnannXf5A5OPrncKF8dP-0"/>
                <mxCell id="DnannXf5A5OPrncKF8dP-2" value="User" style="whiteSpace=wrap;html=1;align=center;fillColor=#6d8764;fontColor=#ffffff;strokeColor=#3A5431;" parent="DnannXf5A5OPrncKF8dP-1" vertex="1">
                    <mxGeometry x="176" y="154" width="100" height="40" as="geometry"/>
                </mxCell>
                <mxCell id="DnannXf5A5OPrncKF8dP-3" style="html=1;endArrow=none;endFill=0;" parent="DnannXf5A5OPrncKF8dP-1" source="DnannXf5A5OPrncKF8dP-4" target="DnannXf5A5OPrncKF8dP-2" edge="1">
                    <mxGeometry relative="1" as="geometry"/>
                </mxCell>
                <mxCell id="DnannXf5A5OPrncKF8dP-4" value="email" style="ellipse;whiteSpace=wrap;html=1;align=center;fillColor=#0050ef;fontColor=#ffffff;strokeColor=#001DBC;" parent="DnannXf5A5OPrncKF8dP-1" vertex="1">
                    <mxGeometry x="-40" y="102" width="100" height="40" as="geometry"/>
                </mxCell>
                <mxCell id="DnannXf5A5OPrncKF8dP-5" style="html=1;endArrow=none;endFill=0;" parent="DnannXf5A5OPrncKF8dP-1" source="DnannXf5A5OPrncKF8dP-6" target="DnannXf5A5OPrncKF8dP-2" edge="1">
                    <mxGeometry relative="1" as="geometry"/>
                </mxCell>
                <mxCell id="DnannXf5A5OPrncKF8dP-6" value="Id" style="ellipse;whiteSpace=wrap;html=1;align=center;fontStyle=4;fillColor=#6a00ff;fontColor=#ffffff;strokeColor=#3700CC;" parent="DnannXf5A5OPrncKF8dP-1" vertex="1">
                    <mxGeometry x="60" y="38" width="100" height="40" as="geometry"/>
                </mxCell>
                <mxCell id="DnannXf5A5OPrncKF8dP-7" value="zip_code" style="ellipse;whiteSpace=wrap;html=1;align=center;fillColor=#0050ef;fontColor=#ffffff;strokeColor=#001DBC;" parent="DnannXf5A5OPrncKF8dP-1" vertex="1">
                    <mxGeometry x="636" y="67" width="100" height="40" as="geometry"/>
                </mxCell>
                <mxCell id="DnannXf5A5OPrncKF8dP-8" style="html=1;endArrow=none;endFill=0;" parent="DnannXf5A5OPrncKF8dP-1" source="DnannXf5A5OPrncKF8dP-9" target="DnannXf5A5OPrncKF8dP-2" edge="1">
                    <mxGeometry relative="1" as="geometry"/>
                </mxCell>
                <mxCell id="DnannXf5A5OPrncKF8dP-9" value="first_name" style="ellipse;whiteSpace=wrap;html=1;align=center;fillColor=#0050ef;fontColor=#ffffff;strokeColor=#001DBC;" parent="DnannXf5A5OPrncKF8dP-1" vertex="1">
                    <mxGeometry x="-62" y="186" width="100" height="40" as="geometry"/>
                </mxCell>
                <mxCell id="DnannXf5A5OPrncKF8dP-10" style="html=1;endArrow=none;endFill=0;" parent="DnannXf5A5OPrncKF8dP-1" source="DnannXf5A5OPrncKF8dP-11" target="DnannXf5A5OPrncKF8dP-2" edge="1">
                    <mxGeometry relative="1" as="geometry"/>
                </mxCell>
                <mxCell id="DnannXf5A5OPrncKF8dP-11" value="password" style="ellipse;whiteSpace=wrap;html=1;align=center;fillColor=#0050ef;fontColor=#ffffff;strokeColor=#001DBC;" parent="DnannXf5A5OPrncKF8dP-1" vertex="1">
                    <mxGeometry x="53" y="296" width="100" height="40" as="geometry"/>
                </mxCell>
                <mxCell id="DnannXf5A5OPrncKF8dP-12" value="rate_schedule" style="ellipse;whiteSpace=wrap;html=1;align=center;fillColor=#0050ef;fontColor=#ffffff;strokeColor=#001DBC;" parent="DnannXf5A5OPrncKF8dP-1" vertex="1">
                    <mxGeometry x="644" y="142" width="100" height="40" as="geometry"/>
                </mxCell>
                <mxCell id="DnannXf5A5OPrncKF8dP-13" style="edgeStyle=none;html=1;endArrow=none;endFill=0;" parent="DnannXf5A5OPrncKF8dP-1" source="DnannXf5A5OPrncKF8dP-30" target="DnannXf5A5OPrncKF8dP-31" edge="1">
                    <mxGeometry relative="1" as="geometry">
                        <mxPoint x="541.4997640504457" y="153.9999999999999" as="sourcePoint"/>
                        <mxPoint x="543.4286087428573" y="72.99869400000296" as="targetPoint"/>
                    </mxGeometry>
                </mxCell>
                <mxCell id="DnannXf5A5OPrncKF8dP-14" style="edgeStyle=none;html=1;endArrow=none;endFill=0;" parent="DnannXf5A5OPrncKF8dP-1" source="DnannXf5A5OPrncKF8dP-30" target="DnannXf5A5OPrncKF8dP-7" edge="1">
                    <mxGeometry relative="1" as="geometry">
                        <mxPoint x="574.2547946153097" y="153.9999999999999" as="sourcePoint"/>
                    </mxGeometry>
                </mxCell>
                <mxCell id="DnannXf5A5OPrncKF8dP-15" style="edgeStyle=none;html=1;endArrow=none;endFill=0;" parent="DnannXf5A5OPrncKF8dP-1" source="DnannXf5A5OPrncKF8dP-30" target="DnannXf5A5OPrncKF8dP-12" edge="1">
                    <mxGeometry relative="1" as="geometry">
                        <mxPoint x="591" y="169.99170574207267" as="sourcePoint"/>
                    </mxGeometry>
                </mxCell>
                <mxCell id="DnannXf5A5OPrncKF8dP-16" style="edgeStyle=none;html=1;endArrow=none;endFill=0;" parent="DnannXf5A5OPrncKF8dP-1" source="DnannXf5A5OPrncKF8dP-30" target="DnannXf5A5OPrncKF8dP-23" edge="1">
                    <mxGeometry relative="1" as="geometry">
                        <mxPoint x="591" y="190.7721657435028" as="sourcePoint"/>
                    </mxGeometry>
                </mxCell>
                <mxCell id="DnannXf5A5OPrncKF8dP-17" style="edgeStyle=none;html=1;endArrow=none;endFill=0;" parent="DnannXf5A5OPrncKF8dP-1" source="DnannXf5A5OPrncKF8dP-30" target="DnannXf5A5OPrncKF8dP-24" edge="1">
                    <mxGeometry relative="1" as="geometry">
                        <mxPoint x="559.0271586678582" y="193.9999999999999" as="sourcePoint"/>
                    </mxGeometry>
                </mxCell>
                <mxCell id="DnannXf5A5OPrncKF8dP-18" style="edgeStyle=orthogonalEdgeStyle;html=1;endArrow=none;endFill=0;" parent="DnannXf5A5OPrncKF8dP-1" source="DnannXf5A5OPrncKF8dP-22" target="DnannXf5A5OPrncKF8dP-30" edge="1">
                    <mxGeometry relative="1" as="geometry">
                        <Array as="points"/>
                        <mxPoint x="491" y="174.0000000000001" as="targetPoint"/>
                    </mxGeometry>
                </mxCell>
                <mxCell id="DnannXf5A5OPrncKF8dP-19" value="1" style="edgeLabel;html=1;align=center;verticalAlign=middle;resizable=0;points=[];" parent="DnannXf5A5OPrncKF8dP-18" vertex="1" connectable="0">
                    <mxGeometry x="-0.6752" relative="1" as="geometry">
                        <mxPoint x="-1" y="-14" as="offset"/>
                    </mxGeometry>
                </mxCell>
                <mxCell id="DnannXf5A5OPrncKF8dP-20" style="edgeStyle=orthogonalEdgeStyle;html=1;endArrow=none;endFill=0;" parent="DnannXf5A5OPrncKF8dP-1" source="DnannXf5A5OPrncKF8dP-22" target="DnannXf5A5OPrncKF8dP-2" edge="1">
                    <mxGeometry relative="1" as="geometry">
                        <Array as="points"/>
                    </mxGeometry>
                </mxCell>
                <mxCell id="DnannXf5A5OPrncKF8dP-21" value="1" style="edgeLabel;html=1;align=center;verticalAlign=middle;resizable=0;points=[];" parent="DnannXf5A5OPrncKF8dP-20" vertex="1" connectable="0">
                    <mxGeometry x="-0.2207" relative="1" as="geometry">
                        <mxPoint x="18" y="-13" as="offset"/>
                    </mxGeometry>
                </mxCell>
                <mxCell id="DnannXf5A5OPrncKF8dP-22" value="Has" style="shape=rhombus;perimeter=rhombusPerimeter;whiteSpace=wrap;html=1;align=center;fillColor=#647687;fontColor=#ffffff;strokeColor=#314354;" parent="DnannXf5A5OPrncKF8dP-1" vertex="1">
                    <mxGeometry x="329" y="149" width="99" height="50" as="geometry"/>
                </mxCell>
                <mxCell id="DnannXf5A5OPrncKF8dP-23" value="distributor_id" style="ellipse;whiteSpace=wrap;html=1;align=center;fillColor=#0050ef;fontColor=#ffffff;strokeColor=#001DBC;" parent="DnannXf5A5OPrncKF8dP-1" vertex="1">
                    <mxGeometry x="644" y="205" width="100" height="40" as="geometry"/>
                </mxCell>
                <mxCell id="DnannXf5A5OPrncKF8dP-24" value="selected_offer_id" style="ellipse;whiteSpace=wrap;html=1;align=center;fillColor=#0050ef;fontColor=#ffffff;strokeColor=#001DBC;" parent="DnannXf5A5OPrncKF8dP-1" vertex="1">
                    <mxGeometry x="589" y="274" width="120" height="40" as="geometry"/>
                </mxCell>
                <mxCell id="DnannXf5A5OPrncKF8dP-25" style="edgeStyle=none;html=1;dashed=1;endArrow=open;endFill=0;" parent="DnannXf5A5OPrncKF8dP-1" source="DnannXf5A5OPrncKF8dP-27" target="DnannXf5A5OPrncKF8dP-24" edge="1">
                    <mxGeometry relative="1" as="geometry"/>
                </mxCell>
                <mxCell id="DnannXf5A5OPrncKF8dP-26" style="edgeStyle=none;html=1;dashed=1;endArrow=open;endFill=0;" parent="DnannXf5A5OPrncKF8dP-1" source="DnannXf5A5OPrncKF8dP-27" target="DnannXf5A5OPrncKF8dP-23" edge="1">
                    <mxGeometry relative="1" as="geometry"/>
                </mxCell>
                <mxCell id="DnannXf5A5OPrncKF8dP-27" value="These are PAPowerSwitch api Ids" style="shape=note2;boundedLbl=1;whiteSpace=wrap;html=1;size=12;verticalAlign=top;align=center;" parent="DnannXf5A5OPrncKF8dP-1" vertex="1">
                    <mxGeometry x="748" y="336" width="124" height="70" as="geometry"/>
                </mxCell>
                <mxCell id="DnannXf5A5OPrncKF8dP-28" style="edgeStyle=none;html=1;dashed=1;endArrow=open;endFill=0;" parent="DnannXf5A5OPrncKF8dP-1" source="DnannXf5A5OPrncKF8dP-29" target="DnannXf5A5OPrncKF8dP-11" edge="1">
                    <mxGeometry relative="1" as="geometry"/>
                </mxCell>
                <mxCell id="DnannXf5A5OPrncKF8dP-29" value="Stored as hash" style="shape=note2;boundedLbl=1;whiteSpace=wrap;html=1;size=12;verticalAlign=top;align=center;" parent="DnannXf5A5OPrncKF8dP-1" vertex="1">
                    <mxGeometry x="176" y="353" width="128" height="49" as="geometry"/>
                </mxCell>
                <mxCell id="DnannXf5A5OPrncKF8dP-30" value="User_Preferences" style="shape=ext;margin=3;double=1;whiteSpace=wrap;html=1;align=center;fillColor=#6d8764;strokeColor=#3A5431;fontColor=#ffffff;" parent="DnannXf5A5OPrncKF8dP-1" vertex="1">
                    <mxGeometry x="475" y="153" width="131" height="42" as="geometry"/>
                </mxCell>
                <mxCell id="DnannXf5A5OPrncKF8dP-31" value="&lt;span style=&quot;border-bottom: 1px dotted&quot;&gt;User_Id&lt;/span&gt;" style="ellipse;whiteSpace=wrap;html=1;align=center;fillColor=#6a00ff;fontColor=#ffffff;strokeColor=#3700CC;" parent="DnannXf5A5OPrncKF8dP-1" vertex="1">
                    <mxGeometry x="506" y="27" width="100" height="40" as="geometry"/>
                </mxCell>
                <mxCell id="DnannXf5A5OPrncKF8dP-32" value="selected_offer_rate" style="ellipse;whiteSpace=wrap;html=1;align=center;fillColor=#0050ef;fontColor=#ffffff;strokeColor=#001DBC;" parent="DnannXf5A5OPrncKF8dP-1" vertex="1">
                    <mxGeometry x="525" y="336" width="120" height="49" as="geometry"/>
                </mxCell>
                <mxCell id="DnannXf5A5OPrncKF8dP-33" style="edgeStyle=none;html=1;endArrow=none;endFill=0;" parent="DnannXf5A5OPrncKF8dP-1" source="DnannXf5A5OPrncKF8dP-30" target="DnannXf5A5OPrncKF8dP-32" edge="1">
                    <mxGeometry relative="1" as="geometry">
                        <mxPoint x="569.5041217597206" y="205" as="sourcePoint"/>
                        <mxPoint x="641.7591268660192" y="284.8434742955769" as="targetPoint"/>
                    </mxGeometry>
                </mxCell>
                <mxCell id="2OgKA_KSKLrOJBNdiM9C-2" style="edgeStyle=none;html=1;endArrow=none;endFill=0;" parent="DnannXf5A5OPrncKF8dP-1" source="2OgKA_KSKLrOJBNdiM9C-0" target="DnannXf5A5OPrncKF8dP-2" edge="1">
                    <mxGeometry relative="1" as="geometry"/>
                </mxCell>
                <mxCell id="2OgKA_KSKLrOJBNdiM9C-0" value="last_name" style="ellipse;whiteSpace=wrap;html=1;align=center;fillColor=#0050ef;fontColor=#ffffff;strokeColor=#001DBC;" parent="DnannXf5A5OPrncKF8dP-1" vertex="1">
                    <mxGeometry x="-38" y="248" width="100" height="40" as="geometry"/>
                </mxCell>
            </root>
        </mxGraphModel>
    </diagram>
    <diagram name="ER_Diagram_v4" id="BQNc_PuWXjczeR9h-5nc">
        <mxGraphModel dx="1651" dy="896" grid="0" gridSize="10" guides="1" tooltips="1" connect="1" arrows="1" fold="1" page="0" pageScale="1" pageWidth="850" pageHeight="1100" math="0" shadow="0">
            <root>
                <mxCell id="yPADbxkHnoR9biIRz8Ln-0"/>
                <mxCell id="yPADbxkHnoR9biIRz8Ln-1" parent="yPADbxkHnoR9biIRz8Ln-0"/>
                <mxCell id="yPADbxkHnoR9biIRz8Ln-2" value="User" style="whiteSpace=wrap;html=1;align=center;fillColor=#6d8764;fontColor=#ffffff;strokeColor=#3A5431;" parent="yPADbxkHnoR9biIRz8Ln-1" vertex="1">
                    <mxGeometry x="176" y="154" width="100" height="40" as="geometry"/>
                </mxCell>
                <mxCell id="yPADbxkHnoR9biIRz8Ln-3" style="html=1;endArrow=none;endFill=0;" parent="yPADbxkHnoR9biIRz8Ln-1" source="yPADbxkHnoR9biIRz8Ln-4" target="yPADbxkHnoR9biIRz8Ln-2" edge="1">
                    <mxGeometry relative="1" as="geometry"/>
                </mxCell>
                <mxCell id="yPADbxkHnoR9biIRz8Ln-4" value="email" style="ellipse;whiteSpace=wrap;html=1;align=center;fillColor=#0050ef;fontColor=#ffffff;strokeColor=#001DBC;" parent="yPADbxkHnoR9biIRz8Ln-1" vertex="1">
                    <mxGeometry x="-40" y="102" width="100" height="40" as="geometry"/>
                </mxCell>
                <mxCell id="yPADbxkHnoR9biIRz8Ln-5" style="html=1;endArrow=none;endFill=0;" parent="yPADbxkHnoR9biIRz8Ln-1" source="yPADbxkHnoR9biIRz8Ln-6" target="yPADbxkHnoR9biIRz8Ln-2" edge="1">
                    <mxGeometry relative="1" as="geometry"/>
                </mxCell>
                <mxCell id="yPADbxkHnoR9biIRz8Ln-6" value="Id" style="ellipse;whiteSpace=wrap;html=1;align=center;fontStyle=4;fillColor=#6a00ff;fontColor=#ffffff;strokeColor=#3700CC;" parent="yPADbxkHnoR9biIRz8Ln-1" vertex="1">
                    <mxGeometry x="60" y="38" width="100" height="40" as="geometry"/>
                </mxCell>
                <mxCell id="yPADbxkHnoR9biIRz8Ln-7" value="zip_code" style="ellipse;whiteSpace=wrap;html=1;align=center;fillColor=#0050ef;fontColor=#ffffff;strokeColor=#001DBC;" parent="yPADbxkHnoR9biIRz8Ln-1" vertex="1">
                    <mxGeometry x="636" y="67" width="100" height="40" as="geometry"/>
                </mxCell>
                <mxCell id="yPADbxkHnoR9biIRz8Ln-8" style="html=1;endArrow=none;endFill=0;" parent="yPADbxkHnoR9biIRz8Ln-1" source="yPADbxkHnoR9biIRz8Ln-9" target="yPADbxkHnoR9biIRz8Ln-2" edge="1">
                    <mxGeometry relative="1" as="geometry"/>
                </mxCell>
                <mxCell id="yPADbxkHnoR9biIRz8Ln-9" value="first_name" style="ellipse;whiteSpace=wrap;html=1;align=center;fillColor=#0050ef;fontColor=#ffffff;strokeColor=#001DBC;" parent="yPADbxkHnoR9biIRz8Ln-1" vertex="1">
                    <mxGeometry x="-62" y="186" width="100" height="40" as="geometry"/>
                </mxCell>
                <mxCell id="yPADbxkHnoR9biIRz8Ln-10" style="html=1;endArrow=none;endFill=0;" parent="yPADbxkHnoR9biIRz8Ln-1" source="yPADbxkHnoR9biIRz8Ln-11" target="yPADbxkHnoR9biIRz8Ln-2" edge="1">
                    <mxGeometry relative="1" as="geometry"/>
                </mxCell>
                <mxCell id="yPADbxkHnoR9biIRz8Ln-11" value="password" style="ellipse;whiteSpace=wrap;html=1;align=center;fillColor=#0050ef;fontColor=#ffffff;strokeColor=#001DBC;" parent="yPADbxkHnoR9biIRz8Ln-1" vertex="1">
                    <mxGeometry x="53" y="296" width="100" height="40" as="geometry"/>
                </mxCell>
                <mxCell id="yPADbxkHnoR9biIRz8Ln-12" value="rate_schedule" style="ellipse;whiteSpace=wrap;html=1;align=center;fillColor=#0050ef;fontColor=#ffffff;strokeColor=#001DBC;" parent="yPADbxkHnoR9biIRz8Ln-1" vertex="1">
                    <mxGeometry x="644" y="142" width="100" height="40" as="geometry"/>
                </mxCell>
                <mxCell id="yPADbxkHnoR9biIRz8Ln-13" style="edgeStyle=none;html=1;endArrow=none;endFill=0;" parent="yPADbxkHnoR9biIRz8Ln-1" source="yPADbxkHnoR9biIRz8Ln-30" target="yPADbxkHnoR9biIRz8Ln-31" edge="1">
                    <mxGeometry relative="1" as="geometry">
                        <mxPoint x="541.4997640504457" y="153.9999999999999" as="sourcePoint"/>
                        <mxPoint x="543.4286087428573" y="72.99869400000296" as="targetPoint"/>
                    </mxGeometry>
                </mxCell>
                <mxCell id="yPADbxkHnoR9biIRz8Ln-14" style="edgeStyle=none;html=1;endArrow=none;endFill=0;" parent="yPADbxkHnoR9biIRz8Ln-1" source="yPADbxkHnoR9biIRz8Ln-30" target="yPADbxkHnoR9biIRz8Ln-7" edge="1">
                    <mxGeometry relative="1" as="geometry">
                        <mxPoint x="574.2547946153097" y="153.9999999999999" as="sourcePoint"/>
                    </mxGeometry>
                </mxCell>
                <mxCell id="yPADbxkHnoR9biIRz8Ln-15" style="edgeStyle=none;html=1;endArrow=none;endFill=0;" parent="yPADbxkHnoR9biIRz8Ln-1" source="yPADbxkHnoR9biIRz8Ln-30" target="yPADbxkHnoR9biIRz8Ln-12" edge="1">
                    <mxGeometry relative="1" as="geometry">
                        <mxPoint x="591" y="169.99170574207267" as="sourcePoint"/>
                    </mxGeometry>
                </mxCell>
                <mxCell id="yPADbxkHnoR9biIRz8Ln-16" style="edgeStyle=none;html=1;endArrow=none;endFill=0;" parent="yPADbxkHnoR9biIRz8Ln-1" source="yPADbxkHnoR9biIRz8Ln-30" target="yPADbxkHnoR9biIRz8Ln-23" edge="1">
                    <mxGeometry relative="1" as="geometry">
                        <mxPoint x="591" y="190.7721657435028" as="sourcePoint"/>
                    </mxGeometry>
                </mxCell>
                <mxCell id="yPADbxkHnoR9biIRz8Ln-17" style="edgeStyle=none;html=1;endArrow=none;endFill=0;" parent="yPADbxkHnoR9biIRz8Ln-1" source="yPADbxkHnoR9biIRz8Ln-30" target="yPADbxkHnoR9biIRz8Ln-24" edge="1">
                    <mxGeometry relative="1" as="geometry">
                        <mxPoint x="559.0271586678582" y="193.9999999999999" as="sourcePoint"/>
                    </mxGeometry>
                </mxCell>
                <mxCell id="yPADbxkHnoR9biIRz8Ln-18" style="edgeStyle=orthogonalEdgeStyle;html=1;endArrow=none;endFill=0;" parent="yPADbxkHnoR9biIRz8Ln-1" source="yPADbxkHnoR9biIRz8Ln-22" target="yPADbxkHnoR9biIRz8Ln-30" edge="1">
                    <mxGeometry relative="1" as="geometry">
                        <Array as="points"/>
                        <mxPoint x="491" y="174.0000000000001" as="targetPoint"/>
                    </mxGeometry>
                </mxCell>
                <mxCell id="yPADbxkHnoR9biIRz8Ln-19" value="1" style="edgeLabel;html=1;align=center;verticalAlign=middle;resizable=0;points=[];" parent="yPADbxkHnoR9biIRz8Ln-18" vertex="1" connectable="0">
                    <mxGeometry x="-0.6752" relative="1" as="geometry">
                        <mxPoint x="-1" y="-14" as="offset"/>
                    </mxGeometry>
                </mxCell>
                <mxCell id="yPADbxkHnoR9biIRz8Ln-20" style="edgeStyle=orthogonalEdgeStyle;html=1;endArrow=none;endFill=0;" parent="yPADbxkHnoR9biIRz8Ln-1" source="yPADbxkHnoR9biIRz8Ln-22" target="yPADbxkHnoR9biIRz8Ln-2" edge="1">
                    <mxGeometry relative="1" as="geometry">
                        <Array as="points"/>
                    </mxGeometry>
                </mxCell>
                <mxCell id="yPADbxkHnoR9biIRz8Ln-21" value="1" style="edgeLabel;html=1;align=center;verticalAlign=middle;resizable=0;points=[];" parent="yPADbxkHnoR9biIRz8Ln-20" vertex="1" connectable="0">
                    <mxGeometry x="-0.2207" relative="1" as="geometry">
                        <mxPoint x="18" y="-13" as="offset"/>
                    </mxGeometry>
                </mxCell>
                <mxCell id="yPADbxkHnoR9biIRz8Ln-22" value="Has" style="shape=rhombus;perimeter=rhombusPerimeter;whiteSpace=wrap;html=1;align=center;fillColor=#647687;fontColor=#ffffff;strokeColor=#314354;" parent="yPADbxkHnoR9biIRz8Ln-1" vertex="1">
                    <mxGeometry x="329" y="149" width="99" height="50" as="geometry"/>
                </mxCell>
                <mxCell id="yPADbxkHnoR9biIRz8Ln-23" value="distributor_id" style="ellipse;whiteSpace=wrap;html=1;align=center;fillColor=#0050ef;fontColor=#ffffff;strokeColor=#001DBC;" parent="yPADbxkHnoR9biIRz8Ln-1" vertex="1">
                    <mxGeometry x="644" y="205" width="100" height="40" as="geometry"/>
                </mxCell>
                <mxCell id="yPADbxkHnoR9biIRz8Ln-24" value="selected_offer_id" style="ellipse;whiteSpace=wrap;html=1;align=center;fillColor=#0050ef;fontColor=#ffffff;strokeColor=#001DBC;" parent="yPADbxkHnoR9biIRz8Ln-1" vertex="1">
                    <mxGeometry x="589" y="274" width="120" height="40" as="geometry"/>
                </mxCell>
                <mxCell id="yPADbxkHnoR9biIRz8Ln-25" style="edgeStyle=none;html=1;dashed=1;endArrow=open;endFill=0;" parent="yPADbxkHnoR9biIRz8Ln-1" source="yPADbxkHnoR9biIRz8Ln-27" target="yPADbxkHnoR9biIRz8Ln-24" edge="1">
                    <mxGeometry relative="1" as="geometry"/>
                </mxCell>
                <mxCell id="yPADbxkHnoR9biIRz8Ln-26" style="edgeStyle=none;html=1;dashed=1;endArrow=open;endFill=0;" parent="yPADbxkHnoR9biIRz8Ln-1" source="yPADbxkHnoR9biIRz8Ln-27" target="yPADbxkHnoR9biIRz8Ln-23" edge="1">
                    <mxGeometry relative="1" as="geometry"/>
                </mxCell>
                <mxCell id="yPADbxkHnoR9biIRz8Ln-27" value="These are PAPowerSwitch api Ids" style="shape=note2;boundedLbl=1;whiteSpace=wrap;html=1;size=12;verticalAlign=top;align=center;" parent="yPADbxkHnoR9biIRz8Ln-1" vertex="1">
                    <mxGeometry x="748" y="336" width="124" height="70" as="geometry"/>
                </mxCell>
                <mxCell id="yPADbxkHnoR9biIRz8Ln-28" style="edgeStyle=none;html=1;dashed=1;endArrow=open;endFill=0;" parent="yPADbxkHnoR9biIRz8Ln-1" source="yPADbxkHnoR9biIRz8Ln-29" target="yPADbxkHnoR9biIRz8Ln-11" edge="1">
                    <mxGeometry relative="1" as="geometry"/>
                </mxCell>
                <mxCell id="yPADbxkHnoR9biIRz8Ln-29" value="Stored as hash" style="shape=note2;boundedLbl=1;whiteSpace=wrap;html=1;size=12;verticalAlign=top;align=center;" parent="yPADbxkHnoR9biIRz8Ln-1" vertex="1">
                    <mxGeometry x="176" y="353" width="128" height="49" as="geometry"/>
                </mxCell>
                <mxCell id="yPADbxkHnoR9biIRz8Ln-30" value="User_Preferences" style="shape=ext;margin=3;double=1;whiteSpace=wrap;html=1;align=center;fillColor=#6d8764;strokeColor=#3A5431;fontColor=#ffffff;" parent="yPADbxkHnoR9biIRz8Ln-1" vertex="1">
                    <mxGeometry x="475" y="153" width="131" height="42" as="geometry"/>
                </mxCell>
                <mxCell id="yPADbxkHnoR9biIRz8Ln-31" value="&lt;span style=&quot;border-bottom: 1px dotted&quot;&gt;User_Id&lt;/span&gt;" style="ellipse;whiteSpace=wrap;html=1;align=center;fillColor=#6a00ff;fontColor=#ffffff;strokeColor=#3700CC;" parent="yPADbxkHnoR9biIRz8Ln-1" vertex="1">
                    <mxGeometry x="506" y="27" width="100" height="40" as="geometry"/>
                </mxCell>
                <mxCell id="yPADbxkHnoR9biIRz8Ln-32" value="selected_offer_rate" style="ellipse;whiteSpace=wrap;html=1;align=center;fillColor=#0050ef;fontColor=#ffffff;strokeColor=#001DBC;" parent="yPADbxkHnoR9biIRz8Ln-1" vertex="1">
                    <mxGeometry x="525" y="336" width="120" height="49" as="geometry"/>
                </mxCell>
                <mxCell id="yPADbxkHnoR9biIRz8Ln-33" style="edgeStyle=none;html=1;endArrow=none;endFill=0;" parent="yPADbxkHnoR9biIRz8Ln-1" source="yPADbxkHnoR9biIRz8Ln-30" target="yPADbxkHnoR9biIRz8Ln-32" edge="1">
                    <mxGeometry relative="1" as="geometry">
                        <mxPoint x="569.5041217597206" y="205" as="sourcePoint"/>
                        <mxPoint x="641.7591268660192" y="284.8434742955769" as="targetPoint"/>
                    </mxGeometry>
                </mxCell>
                <mxCell id="yPADbxkHnoR9biIRz8Ln-34" style="edgeStyle=none;html=1;endArrow=none;endFill=0;" parent="yPADbxkHnoR9biIRz8Ln-1" source="yPADbxkHnoR9biIRz8Ln-35" target="yPADbxkHnoR9biIRz8Ln-2" edge="1">
                    <mxGeometry relative="1" as="geometry"/>
                </mxCell>
                <mxCell id="yPADbxkHnoR9biIRz8Ln-35" value="last_name" style="ellipse;whiteSpace=wrap;html=1;align=center;fillColor=#0050ef;fontColor=#ffffff;strokeColor=#001DBC;" parent="yPADbxkHnoR9biIRz8Ln-1" vertex="1">
                    <mxGeometry x="-38" y="248" width="100" height="40" as="geometry"/>
                </mxCell>
                <mxCell id="cSEcz6BUrSfFsRC6HiUs-0" value="email_notifications" style="ellipse;whiteSpace=wrap;html=1;align=center;fillColor=#0050ef;fontColor=#ffffff;strokeColor=#001DBC;" parent="yPADbxkHnoR9biIRz8Ln-1" vertex="1">
                    <mxGeometry x="437" y="385" width="120" height="49" as="geometry"/>
                </mxCell>
                <mxCell id="cSEcz6BUrSfFsRC6HiUs-1" style="edgeStyle=none;html=1;endArrow=none;endFill=0;" parent="yPADbxkHnoR9biIRz8Ln-1" source="yPADbxkHnoR9biIRz8Ln-30" target="cSEcz6BUrSfFsRC6HiUs-0" edge="1">
                    <mxGeometry relative="1" as="geometry">
                        <mxPoint x="468.5111798534356" y="242" as="sourcePoint"/>
                        <mxPoint x="564.7591268660192" y="331.8434742955769" as="targetPoint"/>
                    </mxGeometry>
                </mxCell>
            </root>
        </mxGraphModel>
    </diagram>
    <diagram name="ER_Diagram_v5" id="cZlJu1i_l4S0iMaN7ej5">
        <mxGraphModel dx="1199" dy="470" grid="0" gridSize="10" guides="1" tooltips="1" connect="1" arrows="1" fold="1" page="0" pageScale="1" pageWidth="850" pageHeight="1100" math="0" shadow="0">
            <root>
                <mxCell id="oZFmfb2m743iyEAtkk1g-0"/>
                <mxCell id="oZFmfb2m743iyEAtkk1g-1" parent="oZFmfb2m743iyEAtkk1g-0"/>
                <mxCell id="oZFmfb2m743iyEAtkk1g-2" value="User" style="whiteSpace=wrap;html=1;align=center;fillColor=#6d8764;fontColor=#ffffff;strokeColor=#3A5431;" parent="oZFmfb2m743iyEAtkk1g-1" vertex="1">
                    <mxGeometry x="176" y="154" width="100" height="40" as="geometry"/>
                </mxCell>
                <mxCell id="oZFmfb2m743iyEAtkk1g-3" style="html=1;endArrow=none;endFill=0;" parent="oZFmfb2m743iyEAtkk1g-1" source="oZFmfb2m743iyEAtkk1g-4" target="oZFmfb2m743iyEAtkk1g-2" edge="1">
                    <mxGeometry relative="1" as="geometry"/>
                </mxCell>
                <mxCell id="oZFmfb2m743iyEAtkk1g-4" value="email" style="ellipse;whiteSpace=wrap;html=1;align=center;fillColor=#0050ef;fontColor=#ffffff;strokeColor=#001DBC;" parent="oZFmfb2m743iyEAtkk1g-1" vertex="1">
                    <mxGeometry x="-62" y="120" width="100" height="40" as="geometry"/>
                </mxCell>
                <mxCell id="oZFmfb2m743iyEAtkk1g-5" style="html=1;endArrow=none;endFill=0;" parent="oZFmfb2m743iyEAtkk1g-1" source="oZFmfb2m743iyEAtkk1g-6" target="oZFmfb2m743iyEAtkk1g-2" edge="1">
                    <mxGeometry relative="1" as="geometry"/>
                </mxCell>
                <mxCell id="oZFmfb2m743iyEAtkk1g-6" value="Id" style="ellipse;whiteSpace=wrap;html=1;align=center;fontStyle=4;fillColor=#6a00ff;fontColor=#ffffff;strokeColor=#3700CC;" parent="oZFmfb2m743iyEAtkk1g-1" vertex="1">
                    <mxGeometry x="108" y="27" width="100" height="40" as="geometry"/>
                </mxCell>
                <mxCell id="oZFmfb2m743iyEAtkk1g-7" value="zip_code" style="ellipse;whiteSpace=wrap;html=1;align=center;fillColor=#0050ef;fontColor=#ffffff;strokeColor=#001DBC;" parent="oZFmfb2m743iyEAtkk1g-1" vertex="1">
                    <mxGeometry x="636" y="67" width="100" height="40" as="geometry"/>
                </mxCell>
                <mxCell id="oZFmfb2m743iyEAtkk1g-8" style="html=1;endArrow=none;endFill=0;" parent="oZFmfb2m743iyEAtkk1g-1" source="oZFmfb2m743iyEAtkk1g-9" target="oZFmfb2m743iyEAtkk1g-2" edge="1">
                    <mxGeometry relative="1" as="geometry"/>
                </mxCell>
                <mxCell id="oZFmfb2m743iyEAtkk1g-9" value="first_name" style="ellipse;whiteSpace=wrap;html=1;align=center;fillColor=#0050ef;fontColor=#ffffff;strokeColor=#001DBC;" parent="oZFmfb2m743iyEAtkk1g-1" vertex="1">
                    <mxGeometry x="-62" y="186" width="100" height="40" as="geometry"/>
                </mxCell>
                <mxCell id="oZFmfb2m743iyEAtkk1g-10" style="html=1;endArrow=none;endFill=0;" parent="oZFmfb2m743iyEAtkk1g-1" source="oZFmfb2m743iyEAtkk1g-11" target="oZFmfb2m743iyEAtkk1g-2" edge="1">
                    <mxGeometry relative="1" as="geometry"/>
                </mxCell>
                <mxCell id="oZFmfb2m743iyEAtkk1g-11" value="password" style="ellipse;whiteSpace=wrap;html=1;align=center;fillColor=#0050ef;fontColor=#ffffff;strokeColor=#001DBC;" parent="oZFmfb2m743iyEAtkk1g-1" vertex="1">
                    <mxGeometry x="53" y="296" width="100" height="40" as="geometry"/>
                </mxCell>
                <mxCell id="oZFmfb2m743iyEAtkk1g-12" value="rate_schedule" style="ellipse;whiteSpace=wrap;html=1;align=center;fillColor=#0050ef;fontColor=#ffffff;strokeColor=#001DBC;" parent="oZFmfb2m743iyEAtkk1g-1" vertex="1">
                    <mxGeometry x="644" y="142" width="100" height="40" as="geometry"/>
                </mxCell>
                <mxCell id="oZFmfb2m743iyEAtkk1g-13" style="edgeStyle=none;html=1;endArrow=none;endFill=0;" parent="oZFmfb2m743iyEAtkk1g-1" source="oZFmfb2m743iyEAtkk1g-30" target="oZFmfb2m743iyEAtkk1g-31" edge="1">
                    <mxGeometry relative="1" as="geometry">
                        <mxPoint x="541.4997640504457" y="153.9999999999999" as="sourcePoint"/>
                        <mxPoint x="543.4286087428573" y="72.99869400000296" as="targetPoint"/>
                    </mxGeometry>
                </mxCell>
                <mxCell id="oZFmfb2m743iyEAtkk1g-14" style="edgeStyle=none;html=1;endArrow=none;endFill=0;" parent="oZFmfb2m743iyEAtkk1g-1" source="oZFmfb2m743iyEAtkk1g-30" target="oZFmfb2m743iyEAtkk1g-7" edge="1">
                    <mxGeometry relative="1" as="geometry">
                        <mxPoint x="574.2547946153097" y="153.9999999999999" as="sourcePoint"/>
                    </mxGeometry>
                </mxCell>
                <mxCell id="oZFmfb2m743iyEAtkk1g-15" style="edgeStyle=none;html=1;endArrow=none;endFill=0;" parent="oZFmfb2m743iyEAtkk1g-1" source="oZFmfb2m743iyEAtkk1g-30" target="oZFmfb2m743iyEAtkk1g-12" edge="1">
                    <mxGeometry relative="1" as="geometry">
                        <mxPoint x="591" y="169.99170574207267" as="sourcePoint"/>
                    </mxGeometry>
                </mxCell>
                <mxCell id="oZFmfb2m743iyEAtkk1g-16" style="edgeStyle=none;html=1;endArrow=none;endFill=0;" parent="oZFmfb2m743iyEAtkk1g-1" source="oZFmfb2m743iyEAtkk1g-30" target="oZFmfb2m743iyEAtkk1g-23" edge="1">
                    <mxGeometry relative="1" as="geometry">
                        <mxPoint x="591" y="190.7721657435028" as="sourcePoint"/>
                    </mxGeometry>
                </mxCell>
                <mxCell id="oZFmfb2m743iyEAtkk1g-18" style="edgeStyle=orthogonalEdgeStyle;html=1;endArrow=none;endFill=0;" parent="oZFmfb2m743iyEAtkk1g-1" source="oZFmfb2m743iyEAtkk1g-22" target="oZFmfb2m743iyEAtkk1g-30" edge="1">
                    <mxGeometry relative="1" as="geometry">
                        <Array as="points"/>
                        <mxPoint x="491" y="174.0000000000001" as="targetPoint"/>
                    </mxGeometry>
                </mxCell>
                <mxCell id="oZFmfb2m743iyEAtkk1g-19" value="1" style="edgeLabel;html=1;align=center;verticalAlign=middle;resizable=0;points=[];" parent="oZFmfb2m743iyEAtkk1g-18" vertex="1" connectable="0">
                    <mxGeometry x="-0.6752" relative="1" as="geometry">
                        <mxPoint x="-1" y="-14" as="offset"/>
                    </mxGeometry>
                </mxCell>
                <mxCell id="oZFmfb2m743iyEAtkk1g-20" style="edgeStyle=orthogonalEdgeStyle;html=1;endArrow=none;endFill=0;" parent="oZFmfb2m743iyEAtkk1g-1" source="oZFmfb2m743iyEAtkk1g-22" target="oZFmfb2m743iyEAtkk1g-2" edge="1">
                    <mxGeometry relative="1" as="geometry">
                        <Array as="points"/>
                    </mxGeometry>
                </mxCell>
                <mxCell id="oZFmfb2m743iyEAtkk1g-21" value="1" style="edgeLabel;html=1;align=center;verticalAlign=middle;resizable=0;points=[];" parent="oZFmfb2m743iyEAtkk1g-20" vertex="1" connectable="0">
                    <mxGeometry x="-0.2207" relative="1" as="geometry">
                        <mxPoint x="18" y="-13" as="offset"/>
                    </mxGeometry>
                </mxCell>
                <mxCell id="oZFmfb2m743iyEAtkk1g-22" value="Has" style="shape=rhombus;perimeter=rhombusPerimeter;whiteSpace=wrap;html=1;align=center;fillColor=#647687;fontColor=#ffffff;strokeColor=#314354;" parent="oZFmfb2m743iyEAtkk1g-1" vertex="1">
                    <mxGeometry x="329" y="149" width="99" height="50" as="geometry"/>
                </mxCell>
                <mxCell id="oZFmfb2m743iyEAtkk1g-23" value="distributor_id" style="ellipse;whiteSpace=wrap;html=1;align=center;fillColor=#0050ef;fontColor=#ffffff;strokeColor=#001DBC;" parent="oZFmfb2m743iyEAtkk1g-1" vertex="1">
                    <mxGeometry x="644" y="205" width="100" height="40" as="geometry"/>
                </mxCell>
                <mxCell id="oZFmfb2m743iyEAtkk1g-26" style="edgeStyle=none;html=1;dashed=1;endArrow=open;endFill=0;" parent="oZFmfb2m743iyEAtkk1g-1" source="oZFmfb2m743iyEAtkk1g-27" target="oZFmfb2m743iyEAtkk1g-23" edge="1">
                    <mxGeometry relative="1" as="geometry"/>
                </mxCell>
                <mxCell id="oZFmfb2m743iyEAtkk1g-27" value="This is a PAPowerSwitch api Id" style="shape=note2;boundedLbl=1;whiteSpace=wrap;html=1;size=12;verticalAlign=top;align=center;fillColor=#f9f7ed;strokeColor=#36393d;" parent="oZFmfb2m743iyEAtkk1g-1" vertex="1">
                    <mxGeometry x="814" y="233" width="130" height="70" as="geometry"/>
                </mxCell>
                <mxCell id="oZFmfb2m743iyEAtkk1g-28" style="edgeStyle=none;html=1;dashed=1;endArrow=open;endFill=0;" parent="oZFmfb2m743iyEAtkk1g-1" source="oZFmfb2m743iyEAtkk1g-29" target="oZFmfb2m743iyEAtkk1g-11" edge="1">
                    <mxGeometry relative="1" as="geometry"/>
                </mxCell>
                <mxCell id="oZFmfb2m743iyEAtkk1g-29" value="Stored as hash" style="shape=note2;boundedLbl=1;whiteSpace=wrap;html=1;size=12;verticalAlign=top;align=center;fillColor=#f9f7ed;strokeColor=#36393d;" parent="oZFmfb2m743iyEAtkk1g-1" vertex="1">
                    <mxGeometry x="176" y="353" width="128" height="49" as="geometry"/>
                </mxCell>
                <mxCell id="_28eny4173ie9hJT4Zl3-1" style="edgeStyle=none;html=1;endArrow=none;endFill=0;" parent="oZFmfb2m743iyEAtkk1g-1" source="oZFmfb2m743iyEAtkk1g-30" target="_28eny4173ie9hJT4Zl3-0" edge="1">
                    <mxGeometry relative="1" as="geometry"/>
                </mxCell>
                <mxCell id="_28eny4173ie9hJT4Zl3-5" style="edgeStyle=none;html=1;startArrow=none;startFill=0;endArrow=none;endFill=0;" parent="oZFmfb2m743iyEAtkk1g-1" source="oZFmfb2m743iyEAtkk1g-30" target="_28eny4173ie9hJT4Zl3-4" edge="1">
                    <mxGeometry relative="1" as="geometry"/>
                </mxCell>
                <mxCell id="oZFmfb2m743iyEAtkk1g-30" value="User_Preferences" style="shape=ext;margin=3;double=1;whiteSpace=wrap;html=1;align=center;fillColor=#6d8764;strokeColor=#3A5431;fontColor=#ffffff;" parent="oZFmfb2m743iyEAtkk1g-1" vertex="1">
                    <mxGeometry x="475" y="153" width="131" height="42" as="geometry"/>
                </mxCell>
                <mxCell id="oZFmfb2m743iyEAtkk1g-31" value="&lt;span style=&quot;border-bottom: 1px dotted&quot;&gt;User_Id&lt;/span&gt;" style="ellipse;whiteSpace=wrap;html=1;align=center;fillColor=#6a00ff;fontColor=#ffffff;strokeColor=#3700CC;" parent="oZFmfb2m743iyEAtkk1g-1" vertex="1">
                    <mxGeometry x="506" y="27" width="100" height="40" as="geometry"/>
                </mxCell>
                <mxCell id="oZFmfb2m743iyEAtkk1g-34" style="edgeStyle=none;html=1;endArrow=none;endFill=0;" parent="oZFmfb2m743iyEAtkk1g-1" source="oZFmfb2m743iyEAtkk1g-35" target="oZFmfb2m743iyEAtkk1g-2" edge="1">
                    <mxGeometry relative="1" as="geometry"/>
                </mxCell>
                <mxCell id="oZFmfb2m743iyEAtkk1g-35" value="last_name" style="ellipse;whiteSpace=wrap;html=1;align=center;fillColor=#0050ef;fontColor=#ffffff;strokeColor=#001DBC;" parent="oZFmfb2m743iyEAtkk1g-1" vertex="1">
                    <mxGeometry x="-38" y="248" width="100" height="40" as="geometry"/>
                </mxCell>
                <mxCell id="oZFmfb2m743iyEAtkk1g-36" value="email_notifications" style="ellipse;whiteSpace=wrap;html=1;align=center;fillColor=#0050ef;fontColor=#ffffff;strokeColor=#001DBC;" parent="oZFmfb2m743iyEAtkk1g-1" vertex="1">
                    <mxGeometry x="437" y="385" width="120" height="49" as="geometry"/>
                </mxCell>
                <mxCell id="oZFmfb2m743iyEAtkk1g-37" style="edgeStyle=none;html=1;endArrow=none;endFill=0;" parent="oZFmfb2m743iyEAtkk1g-1" source="oZFmfb2m743iyEAtkk1g-30" target="oZFmfb2m743iyEAtkk1g-36" edge="1">
                    <mxGeometry relative="1" as="geometry">
                        <mxPoint x="468.5111798534356" y="242" as="sourcePoint"/>
                        <mxPoint x="564.7591268660192" y="331.8434742955769" as="targetPoint"/>
                    </mxGeometry>
                </mxCell>
                <mxCell id="_28eny4173ie9hJT4Zl3-0" value="selected_offer" style="ellipse;whiteSpace=wrap;html=1;align=center;fillColor=#0050ef;fontColor=#ffffff;strokeColor=#001DBC;" parent="oZFmfb2m743iyEAtkk1g-1" vertex="1">
                    <mxGeometry x="625" y="288" width="100" height="40" as="geometry"/>
                </mxCell>
                <mxCell id="_28eny4173ie9hJT4Zl3-3" style="edgeStyle=none;html=1;endArrow=open;endFill=0;dashed=1;" parent="oZFmfb2m743iyEAtkk1g-1" source="_28eny4173ie9hJT4Zl3-2" target="_28eny4173ie9hJT4Zl3-0" edge="1">
                    <mxGeometry relative="1" as="geometry"/>
                </mxCell>
                <mxCell id="_28eny4173ie9hJT4Zl3-2" value="Entire JSON object stored from the api" style="shape=note2;boundedLbl=1;whiteSpace=wrap;html=1;size=12;verticalAlign=top;align=center;fillColor=#f9f7ed;strokeColor=#36393d;" parent="oZFmfb2m743iyEAtkk1g-1" vertex="1">
                    <mxGeometry x="792" y="341" width="124" height="58" as="geometry"/>
                </mxCell>
                <mxCell id="_28eny4173ie9hJT4Zl3-4" value="possible_selections" style="ellipse;whiteSpace=wrap;html=1;align=center;fillColor=#0050ef;fontColor=#ffffff;strokeColor=#001DBC;" parent="oZFmfb2m743iyEAtkk1g-1" vertex="1">
                    <mxGeometry x="561" y="345" width="121" height="48" as="geometry"/>
                </mxCell>
                <mxCell id="_28eny4173ie9hJT4Zl3-6" value="List of offer JSON values, stores the offers that the user has navigated to.&amp;nbsp;" style="shape=note2;boundedLbl=1;whiteSpace=wrap;html=1;size=12;verticalAlign=top;align=center;fillColor=#f9f7ed;strokeColor=#36393d;" parent="oZFmfb2m743iyEAtkk1g-1" vertex="1">
                    <mxGeometry x="690" y="451" width="124" height="85" as="geometry"/>
                </mxCell>
                <mxCell id="_28eny4173ie9hJT4Zl3-7" style="edgeStyle=none;html=1;endArrow=open;endFill=0;dashed=1;" parent="oZFmfb2m743iyEAtkk1g-1" source="_28eny4173ie9hJT4Zl3-6" target="_28eny4173ie9hJT4Zl3-4" edge="1">
                    <mxGeometry relative="1" as="geometry">
                        <mxPoint x="802" y="358.52513966480456" as="sourcePoint"/>
                        <mxPoint x="722.7983854095851" y="331.0921781865602" as="targetPoint"/>
                    </mxGeometry>
                </mxCell>
                <mxCell id="fcN5fxitc9wkgDTpqp5n-1" style="edgeStyle=none;html=1;startArrow=none;startFill=0;endArrow=none;endFill=0;" parent="oZFmfb2m743iyEAtkk1g-1" source="fcN5fxitc9wkgDTpqp5n-0" target="oZFmfb2m743iyEAtkk1g-2" edge="1">
                    <mxGeometry relative="1" as="geometry"/>
                </mxCell>
                <mxCell id="fcN5fxitc9wkgDTpqp5n-0" value="username" style="ellipse;whiteSpace=wrap;html=1;align=center;fillColor=#0050ef;fontColor=#ffffff;strokeColor=#001DBC;" parent="oZFmfb2m743iyEAtkk1g-1" vertex="1">
                    <mxGeometry x="-9" y="59" width="100" height="40" as="geometry"/>
                </mxCell>
            </root>
        </mxGraphModel>
    </diagram>
    <diagram name="ER_Diagram_v6" id="l7Lbk-RLvqFIXFMA5U4u">
        <mxGraphModel dx="1399" dy="588" grid="0" gridSize="10" guides="1" tooltips="1" connect="1" arrows="1" fold="1" page="0" pageScale="1" pageWidth="850" pageHeight="1100" math="0" shadow="0">
            <root>
                <mxCell id="xR7MpVpDLmsvr_dkL1YM-0"/>
                <mxCell id="xR7MpVpDLmsvr_dkL1YM-1" parent="xR7MpVpDLmsvr_dkL1YM-0"/>
                <mxCell id="xR7MpVpDLmsvr_dkL1YM-2" value="User" style="whiteSpace=wrap;html=1;align=center;fillColor=#6d8764;fontColor=#ffffff;strokeColor=#3A5431;" vertex="1" parent="xR7MpVpDLmsvr_dkL1YM-1">
                    <mxGeometry x="176" y="154" width="100" height="40" as="geometry"/>
                </mxCell>
                <mxCell id="xR7MpVpDLmsvr_dkL1YM-3" style="html=1;endArrow=none;endFill=0;" edge="1" parent="xR7MpVpDLmsvr_dkL1YM-1" source="xR7MpVpDLmsvr_dkL1YM-4" target="xR7MpVpDLmsvr_dkL1YM-2">
                    <mxGeometry relative="1" as="geometry"/>
                </mxCell>
                <mxCell id="xR7MpVpDLmsvr_dkL1YM-4" value="email" style="ellipse;whiteSpace=wrap;html=1;align=center;fillColor=#0050ef;fontColor=#ffffff;strokeColor=#001DBC;" vertex="1" parent="xR7MpVpDLmsvr_dkL1YM-1">
                    <mxGeometry x="-62" y="120" width="100" height="40" as="geometry"/>
                </mxCell>
                <mxCell id="xR7MpVpDLmsvr_dkL1YM-5" style="html=1;endArrow=none;endFill=0;" edge="1" parent="xR7MpVpDLmsvr_dkL1YM-1" source="xR7MpVpDLmsvr_dkL1YM-6" target="xR7MpVpDLmsvr_dkL1YM-2">
                    <mxGeometry relative="1" as="geometry"/>
                </mxCell>
                <mxCell id="xR7MpVpDLmsvr_dkL1YM-6" value="Id" style="ellipse;whiteSpace=wrap;html=1;align=center;fontStyle=4;fillColor=#6a00ff;fontColor=#ffffff;strokeColor=#3700CC;" vertex="1" parent="xR7MpVpDLmsvr_dkL1YM-1">
                    <mxGeometry x="108" y="27" width="100" height="40" as="geometry"/>
                </mxCell>
                <mxCell id="xR7MpVpDLmsvr_dkL1YM-7" value="zip_code" style="ellipse;whiteSpace=wrap;html=1;align=center;fillColor=#0050ef;fontColor=#ffffff;strokeColor=#001DBC;" vertex="1" parent="xR7MpVpDLmsvr_dkL1YM-1">
                    <mxGeometry x="623" y="4" width="100" height="40" as="geometry"/>
                </mxCell>
                <mxCell id="xR7MpVpDLmsvr_dkL1YM-8" style="html=1;endArrow=none;endFill=0;" edge="1" parent="xR7MpVpDLmsvr_dkL1YM-1" source="xR7MpVpDLmsvr_dkL1YM-9" target="xR7MpVpDLmsvr_dkL1YM-2">
                    <mxGeometry relative="1" as="geometry"/>
                </mxCell>
                <mxCell id="xR7MpVpDLmsvr_dkL1YM-9" value="first_name" style="ellipse;whiteSpace=wrap;html=1;align=center;fillColor=#0050ef;fontColor=#ffffff;strokeColor=#001DBC;" vertex="1" parent="xR7MpVpDLmsvr_dkL1YM-1">
                    <mxGeometry x="-62" y="186" width="100" height="40" as="geometry"/>
                </mxCell>
                <mxCell id="xR7MpVpDLmsvr_dkL1YM-10" style="html=1;endArrow=none;endFill=0;" edge="1" parent="xR7MpVpDLmsvr_dkL1YM-1" source="xR7MpVpDLmsvr_dkL1YM-11" target="xR7MpVpDLmsvr_dkL1YM-2">
                    <mxGeometry relative="1" as="geometry"/>
                </mxCell>
                <mxCell id="xR7MpVpDLmsvr_dkL1YM-11" value="password" style="ellipse;whiteSpace=wrap;html=1;align=center;fillColor=#0050ef;fontColor=#ffffff;strokeColor=#001DBC;" vertex="1" parent="xR7MpVpDLmsvr_dkL1YM-1">
                    <mxGeometry x="53" y="296" width="100" height="40" as="geometry"/>
                </mxCell>
                <mxCell id="xR7MpVpDLmsvr_dkL1YM-12" value="rate_schedule" style="ellipse;whiteSpace=wrap;html=1;align=center;fillColor=#0050ef;fontColor=#ffffff;strokeColor=#001DBC;" vertex="1" parent="xR7MpVpDLmsvr_dkL1YM-1">
                    <mxGeometry x="679" y="59" width="100" height="40" as="geometry"/>
                </mxCell>
                <mxCell id="xR7MpVpDLmsvr_dkL1YM-13" style="edgeStyle=none;html=1;endArrow=none;endFill=0;" edge="1" parent="xR7MpVpDLmsvr_dkL1YM-1" source="xR7MpVpDLmsvr_dkL1YM-29" target="xR7MpVpDLmsvr_dkL1YM-30">
                    <mxGeometry relative="1" as="geometry">
                        <mxPoint x="541.4997640504457" y="153.9999999999999" as="sourcePoint"/>
                        <mxPoint x="543.4286087428573" y="72.99869400000296" as="targetPoint"/>
                    </mxGeometry>
                </mxCell>
                <mxCell id="xR7MpVpDLmsvr_dkL1YM-14" style="edgeStyle=none;html=1;endArrow=none;endFill=0;" edge="1" parent="xR7MpVpDLmsvr_dkL1YM-1" source="xR7MpVpDLmsvr_dkL1YM-29" target="xR7MpVpDLmsvr_dkL1YM-7">
                    <mxGeometry relative="1" as="geometry">
                        <mxPoint x="574.2547946153097" y="153.9999999999999" as="sourcePoint"/>
                    </mxGeometry>
                </mxCell>
                <mxCell id="xR7MpVpDLmsvr_dkL1YM-15" style="edgeStyle=none;html=1;endArrow=none;endFill=0;" edge="1" parent="xR7MpVpDLmsvr_dkL1YM-1" source="xR7MpVpDLmsvr_dkL1YM-29" target="xR7MpVpDLmsvr_dkL1YM-12">
                    <mxGeometry relative="1" as="geometry">
                        <mxPoint x="591" y="169.99170574207267" as="sourcePoint"/>
                    </mxGeometry>
                </mxCell>
                <mxCell id="xR7MpVpDLmsvr_dkL1YM-16" style="edgeStyle=none;html=1;endArrow=none;endFill=0;" edge="1" parent="xR7MpVpDLmsvr_dkL1YM-1" source="xR7MpVpDLmsvr_dkL1YM-29" target="xR7MpVpDLmsvr_dkL1YM-22">
                    <mxGeometry relative="1" as="geometry">
                        <mxPoint x="591" y="190.7721657435028" as="sourcePoint"/>
                    </mxGeometry>
                </mxCell>
                <mxCell id="xR7MpVpDLmsvr_dkL1YM-17" style="edgeStyle=orthogonalEdgeStyle;html=1;endArrow=none;endFill=0;" edge="1" parent="xR7MpVpDLmsvr_dkL1YM-1" source="xR7MpVpDLmsvr_dkL1YM-21" target="xR7MpVpDLmsvr_dkL1YM-29">
                    <mxGeometry relative="1" as="geometry">
                        <Array as="points"/>
                        <mxPoint x="491" y="174.0000000000001" as="targetPoint"/>
                    </mxGeometry>
                </mxCell>
                <mxCell id="xR7MpVpDLmsvr_dkL1YM-18" value="1" style="edgeLabel;html=1;align=center;verticalAlign=middle;resizable=0;points=[];" vertex="1" connectable="0" parent="xR7MpVpDLmsvr_dkL1YM-17">
                    <mxGeometry x="-0.6752" relative="1" as="geometry">
                        <mxPoint x="-1" y="-14" as="offset"/>
                    </mxGeometry>
                </mxCell>
                <mxCell id="xR7MpVpDLmsvr_dkL1YM-19" style="edgeStyle=orthogonalEdgeStyle;html=1;endArrow=none;endFill=0;" edge="1" parent="xR7MpVpDLmsvr_dkL1YM-1" source="xR7MpVpDLmsvr_dkL1YM-21" target="xR7MpVpDLmsvr_dkL1YM-2">
                    <mxGeometry relative="1" as="geometry">
                        <Array as="points"/>
                    </mxGeometry>
                </mxCell>
                <mxCell id="xR7MpVpDLmsvr_dkL1YM-20" value="1" style="edgeLabel;html=1;align=center;verticalAlign=middle;resizable=0;points=[];" vertex="1" connectable="0" parent="xR7MpVpDLmsvr_dkL1YM-19">
                    <mxGeometry x="-0.2207" relative="1" as="geometry">
                        <mxPoint x="18" y="-13" as="offset"/>
                    </mxGeometry>
                </mxCell>
                <mxCell id="xR7MpVpDLmsvr_dkL1YM-21" value="Has" style="shape=rhombus;perimeter=rhombusPerimeter;whiteSpace=wrap;html=1;align=center;fillColor=#647687;fontColor=#ffffff;strokeColor=#314354;" vertex="1" parent="xR7MpVpDLmsvr_dkL1YM-1">
                    <mxGeometry x="329" y="149" width="99" height="50" as="geometry"/>
                </mxCell>
                <mxCell id="xR7MpVpDLmsvr_dkL1YM-22" value="distributor_id" style="ellipse;whiteSpace=wrap;html=1;align=center;fillColor=#0050ef;fontColor=#ffffff;strokeColor=#001DBC;" vertex="1" parent="xR7MpVpDLmsvr_dkL1YM-1">
                    <mxGeometry x="707" y="120" width="100" height="40" as="geometry"/>
                </mxCell>
                <mxCell id="xR7MpVpDLmsvr_dkL1YM-23" style="edgeStyle=none;html=1;dashed=1;endArrow=open;endFill=0;" edge="1" parent="xR7MpVpDLmsvr_dkL1YM-1" source="xR7MpVpDLmsvr_dkL1YM-24" target="xR7MpVpDLmsvr_dkL1YM-22">
                    <mxGeometry relative="1" as="geometry"/>
                </mxCell>
                <mxCell id="xR7MpVpDLmsvr_dkL1YM-24" value="This is a PAPowerSwitch api Id" style="shape=note2;boundedLbl=1;whiteSpace=wrap;html=1;size=12;verticalAlign=top;align=center;fillColor=#f9f7ed;strokeColor=#36393d;" vertex="1" parent="xR7MpVpDLmsvr_dkL1YM-1">
                    <mxGeometry x="847" y="105" width="130" height="70" as="geometry"/>
                </mxCell>
                <mxCell id="xR7MpVpDLmsvr_dkL1YM-25" style="edgeStyle=none;html=1;dashed=1;endArrow=open;endFill=0;" edge="1" parent="xR7MpVpDLmsvr_dkL1YM-1" source="xR7MpVpDLmsvr_dkL1YM-26" target="xR7MpVpDLmsvr_dkL1YM-11">
                    <mxGeometry relative="1" as="geometry"/>
                </mxCell>
                <mxCell id="xR7MpVpDLmsvr_dkL1YM-26" value="Stored as hash" style="shape=note2;boundedLbl=1;whiteSpace=wrap;html=1;size=12;verticalAlign=top;align=center;fillColor=#f9f7ed;strokeColor=#36393d;" vertex="1" parent="xR7MpVpDLmsvr_dkL1YM-1">
                    <mxGeometry x="176" y="353" width="128" height="49" as="geometry"/>
                </mxCell>
                <mxCell id="xR7MpVpDLmsvr_dkL1YM-27" style="edgeStyle=none;html=1;endArrow=none;endFill=0;" edge="1" parent="xR7MpVpDLmsvr_dkL1YM-1" source="xR7MpVpDLmsvr_dkL1YM-29" target="xR7MpVpDLmsvr_dkL1YM-35">
                    <mxGeometry relative="1" as="geometry"/>
                </mxCell>
                <mxCell id="xR7MpVpDLmsvr_dkL1YM-28" style="edgeStyle=none;html=1;startArrow=none;startFill=0;endArrow=none;endFill=0;" edge="1" parent="xR7MpVpDLmsvr_dkL1YM-1" source="xR7MpVpDLmsvr_dkL1YM-29" target="xR7MpVpDLmsvr_dkL1YM-38">
                    <mxGeometry relative="1" as="geometry"/>
                </mxCell>
                <mxCell id="19v6Ka_uo7tKsnPZL_HE-3" style="edgeStyle=none;html=1;endArrow=none;endFill=0;" edge="1" parent="xR7MpVpDLmsvr_dkL1YM-1" source="xR7MpVpDLmsvr_dkL1YM-29" target="19v6Ka_uo7tKsnPZL_HE-1">
                    <mxGeometry relative="1" as="geometry"/>
                </mxCell>
                <mxCell id="19v6Ka_uo7tKsnPZL_HE-4" style="edgeStyle=none;html=1;endArrow=none;endFill=0;" edge="1" parent="xR7MpVpDLmsvr_dkL1YM-1" source="xR7MpVpDLmsvr_dkL1YM-29" target="19v6Ka_uo7tKsnPZL_HE-2">
                    <mxGeometry relative="1" as="geometry"/>
                </mxCell>
                <mxCell id="xR7MpVpDLmsvr_dkL1YM-29" value="User_Preferences" style="shape=ext;margin=3;double=1;whiteSpace=wrap;html=1;align=center;fillColor=#6d8764;strokeColor=#3A5431;fontColor=#ffffff;" vertex="1" parent="xR7MpVpDLmsvr_dkL1YM-1">
                    <mxGeometry x="475" y="153" width="131" height="42" as="geometry"/>
                </mxCell>
                <mxCell id="xR7MpVpDLmsvr_dkL1YM-30" value="&lt;span style=&quot;border-bottom: 1px dotted&quot;&gt;User_Id&lt;/span&gt;" style="ellipse;whiteSpace=wrap;html=1;align=center;fillColor=#6a00ff;fontColor=#ffffff;strokeColor=#3700CC;" vertex="1" parent="xR7MpVpDLmsvr_dkL1YM-1">
                    <mxGeometry x="506" y="27" width="100" height="40" as="geometry"/>
                </mxCell>
                <mxCell id="xR7MpVpDLmsvr_dkL1YM-31" style="edgeStyle=none;html=1;endArrow=none;endFill=0;" edge="1" parent="xR7MpVpDLmsvr_dkL1YM-1" source="xR7MpVpDLmsvr_dkL1YM-32" target="xR7MpVpDLmsvr_dkL1YM-2">
                    <mxGeometry relative="1" as="geometry"/>
                </mxCell>
                <mxCell id="xR7MpVpDLmsvr_dkL1YM-32" value="last_name" style="ellipse;whiteSpace=wrap;html=1;align=center;fillColor=#0050ef;fontColor=#ffffff;strokeColor=#001DBC;" vertex="1" parent="xR7MpVpDLmsvr_dkL1YM-1">
                    <mxGeometry x="-38" y="248" width="100" height="40" as="geometry"/>
                </mxCell>
                <mxCell id="xR7MpVpDLmsvr_dkL1YM-33" value="email_notifications" style="ellipse;whiteSpace=wrap;html=1;align=center;fillColor=#0050ef;fontColor=#ffffff;strokeColor=#001DBC;" vertex="1" parent="xR7MpVpDLmsvr_dkL1YM-1">
                    <mxGeometry x="437" y="385" width="120" height="49" as="geometry"/>
                </mxCell>
                <mxCell id="xR7MpVpDLmsvr_dkL1YM-34" style="edgeStyle=none;html=1;endArrow=none;endFill=0;" edge="1" parent="xR7MpVpDLmsvr_dkL1YM-1" source="xR7MpVpDLmsvr_dkL1YM-29" target="xR7MpVpDLmsvr_dkL1YM-33">
                    <mxGeometry relative="1" as="geometry">
                        <mxPoint x="468.5111798534356" y="242" as="sourcePoint"/>
                        <mxPoint x="564.7591268660192" y="331.8434742955769" as="targetPoint"/>
                    </mxGeometry>
                </mxCell>
                <mxCell id="xR7MpVpDLmsvr_dkL1YM-35" value="selected_offer" style="ellipse;whiteSpace=wrap;html=1;align=center;fillColor=#0050ef;fontColor=#ffffff;strokeColor=#001DBC;" vertex="1" parent="xR7MpVpDLmsvr_dkL1YM-1">
                    <mxGeometry x="625" y="288" width="100" height="40" as="geometry"/>
                </mxCell>
                <mxCell id="xR7MpVpDLmsvr_dkL1YM-36" style="edgeStyle=none;html=1;endArrow=open;endFill=0;dashed=1;" edge="1" parent="xR7MpVpDLmsvr_dkL1YM-1" source="xR7MpVpDLmsvr_dkL1YM-37" target="xR7MpVpDLmsvr_dkL1YM-35">
                    <mxGeometry relative="1" as="geometry"/>
                </mxCell>
                <mxCell id="xR7MpVpDLmsvr_dkL1YM-37" value="Entire JSON object stored from the api" style="shape=note2;boundedLbl=1;whiteSpace=wrap;html=1;size=12;verticalAlign=top;align=center;fillColor=#f9f7ed;strokeColor=#36393d;" vertex="1" parent="xR7MpVpDLmsvr_dkL1YM-1">
                    <mxGeometry x="792" y="341" width="124" height="58" as="geometry"/>
                </mxCell>
                <mxCell id="xR7MpVpDLmsvr_dkL1YM-38" value="possible_selections" style="ellipse;whiteSpace=wrap;html=1;align=center;fillColor=#0050ef;fontColor=#ffffff;strokeColor=#001DBC;" vertex="1" parent="xR7MpVpDLmsvr_dkL1YM-1">
                    <mxGeometry x="561" y="345" width="121" height="48" as="geometry"/>
                </mxCell>
                <mxCell id="xR7MpVpDLmsvr_dkL1YM-39" value="List of offer JSON values, stores the offers that the user has navigated to.&amp;nbsp;" style="shape=note2;boundedLbl=1;whiteSpace=wrap;html=1;size=12;verticalAlign=top;align=center;fillColor=#f9f7ed;strokeColor=#36393d;" vertex="1" parent="xR7MpVpDLmsvr_dkL1YM-1">
                    <mxGeometry x="690" y="451" width="124" height="85" as="geometry"/>
                </mxCell>
                <mxCell id="xR7MpVpDLmsvr_dkL1YM-40" style="edgeStyle=none;html=1;endArrow=open;endFill=0;dashed=1;" edge="1" parent="xR7MpVpDLmsvr_dkL1YM-1" source="xR7MpVpDLmsvr_dkL1YM-39" target="xR7MpVpDLmsvr_dkL1YM-38">
                    <mxGeometry relative="1" as="geometry">
                        <mxPoint x="802" y="358.52513966480456" as="sourcePoint"/>
                        <mxPoint x="722.7983854095851" y="331.0921781865602" as="targetPoint"/>
                    </mxGeometry>
                </mxCell>
                <mxCell id="xR7MpVpDLmsvr_dkL1YM-41" style="edgeStyle=none;html=1;startArrow=none;startFill=0;endArrow=none;endFill=0;" edge="1" parent="xR7MpVpDLmsvr_dkL1YM-1" source="xR7MpVpDLmsvr_dkL1YM-42" target="xR7MpVpDLmsvr_dkL1YM-2">
                    <mxGeometry relative="1" as="geometry"/>
                </mxCell>
                <mxCell id="xR7MpVpDLmsvr_dkL1YM-42" value="username" style="ellipse;whiteSpace=wrap;html=1;align=center;fillColor=#0050ef;fontColor=#ffffff;strokeColor=#001DBC;" vertex="1" parent="xR7MpVpDLmsvr_dkL1YM-1">
                    <mxGeometry x="-9" y="59" width="100" height="40" as="geometry"/>
                </mxCell>
                <mxCell id="19v6Ka_uo7tKsnPZL_HE-1" value="selected_offer_expected_end" style="ellipse;whiteSpace=wrap;html=1;align=center;fillColor=#0050ef;fontColor=#ffffff;strokeColor=#001DBC;" vertex="1" parent="xR7MpVpDLmsvr_dkL1YM-1">
                    <mxGeometry x="686" y="234" width="187" height="46" as="geometry"/>
                </mxCell>
                <mxCell id="19v6Ka_uo7tKsnPZL_HE-2" value="selected_offer_selected_date" style="ellipse;whiteSpace=wrap;html=1;align=center;fillColor=#0050ef;fontColor=#ffffff;strokeColor=#001DBC;" vertex="1" parent="xR7MpVpDLmsvr_dkL1YM-1">
                    <mxGeometry x="704" y="180" width="192" height="43" as="geometry"/>
                </mxCell>
            </root>
        </mxGraphModel>
    </diagram>
</mxfile>